<svg xmlns="http://www.w3.org/2000/svg" id="ico_0070_content_cut" width="24" height="24" viewBox="0 0 24 24">
    <path id="Path_835" fill="none" d="M0 0h24v24H0z" data-name="Path 835"/>
    <path id="Path_836" d="M9.64 7.64A3.9 3.9 0 0 0 10 6a4 4 0 1 0-4 4 3.9 3.9 0 0 0 1.64-.36L10 12l-2.36 2.36A3.9 3.9 0 0 0 6 14a4 4 0 1 0 4 4 3.9 3.9 0 0 0-.36-1.64L12 14l7 7h3v-1zM6 8a2 2 0 1 1 2-2 2 2 0 0 1-2 2zm0 12a2 2 0 1 1 2-2 2 2 0 0 1-2 2zm6-7.5a.5.5 0 1 1 .5-.5.5.5 0 0 1-.5.5zM19 3l-6 6 2 2 7-7V3z" data-name="Path 836"/>
</svg>
