<svg width="16" height="16" viewBox="0 0 16 16" fill="none" xmlns="http://www.w3.org/2000/svg">
<path fill-rule="evenodd" clip-rule="evenodd" d="M2 2V9H14V4C14 3.44772 13.5523 3 13 3H8V2C8 1.44772 7.55228 1 7 1H3C2.44772 1 2 1.44772 2 2Z" fill="#A9ADC4"/>
<path fill-rule="evenodd" clip-rule="evenodd" d="M12 5.5C12 5.22386 11.7761 5 11.5 5H4.5C4.22386 5 4 5.22386 4 5.5V8H12V5.5Z" fill="white"/>
<path d="M13.7562 13.6719C13.6886 13.8765 13.4936 14.0116 13.2782 14.0029H2.72223C2.5069 14.0116 2.31188 13.8765 2.24423 13.6719L1.00023 7.33393C0.964233 7.15193 1.12223 7.00293 1.34823 7.00293H14.6462C14.8732 7.00293 15.0302 7.15093 14.9942 7.33393L13.7562 13.6719Z" fill="#5A5C8B"/>
</svg>
