<svg width="20" height="20" viewBox="0 0 20 20" fill="none" xmlns="http://www.w3.org/2000/svg">
<path d="M2.5 14.3762V17.5012H5.625L14.8413 8.28498L11.7163 5.15998L2.5 14.3762ZM17.2587 5.86748C17.336 5.79039 17.3973 5.69881 17.4391 5.598C17.4809 5.49719 17.5025 5.38912 17.5025 5.27998C17.5025 5.17084 17.4809 5.06277 17.4391 4.96196C17.3973 4.86115 17.336 4.76958 17.2587 4.69248L15.3088 2.74248C15.2317 2.66523 15.1401 2.60394 15.0393 2.56212C14.9385 2.5203 14.8304 2.49878 14.7213 2.49878C14.6121 2.49878 14.504 2.5203 14.4032 2.56212C14.3024 2.60394 14.2108 2.66523 14.1337 2.74248L12.6087 4.26748L15.7337 7.39248L17.2587 5.86748Z" fill="#4D4D4D"/>
</svg>
