<svg width="16" height="16" viewBox="0 0 16 16" fill="none" xmlns="http://www.w3.org/2000/svg">
<path d="M8.14688 7.55042C7.70835 7.84344 7.19278 7.99984 6.66536 7.99984C5.95812 7.99984 5.27984 7.71889 4.77975 7.21879C4.27965 6.71869 3.9987 6.04042 3.9987 5.33317C3.9987 4.80576 4.1551 4.29018 4.44811 3.85165C4.74113 3.41312 5.15761 3.07133 5.64488 2.86949C6.13214 2.66766 6.66832 2.61485 7.18561 2.71774C7.70289 2.82064 8.17804 3.07461 8.55098 3.44755C8.92392 3.82049 9.1779 4.29565 9.28079 4.81293C9.38369 5.33021 9.33088 5.86639 9.12904 6.35366C8.92721 6.84093 8.58542 7.25741 8.14688 7.55042Z" fill="#808080"/>
<path d="M1.33203 11.9998C1.33203 10.2265 4.88536 9.33317 6.66536 9.33317C7.63208 9.33317 9.12185 9.59667 10.2814 10.1215L8.66536 11.7375V13.3332H1.33203V11.9998Z" fill="#808080"/>
<path d="M9.33203 12.0834V13.3332H10.5818L14.2677 9.64727L13.0179 8.39748L9.33203 12.0834ZM15.2346 8.68043C15.2655 8.6496 15.29 8.61298 15.3067 8.57266C15.3234 8.53234 15.332 8.48912 15.332 8.44547C15.332 8.40182 15.3234 8.3586 15.3067 8.31828C15.29 8.27796 15.2655 8.24134 15.2346 8.21051L14.4547 7.43064C14.4239 7.39974 14.3872 7.37523 14.3469 7.3585C14.3066 7.34178 14.2634 7.33317 14.2197 7.33317C14.1761 7.33317 14.1329 7.34178 14.0925 7.3585C14.0522 7.37523 14.0156 7.39974 13.9848 7.43064L13.3749 8.04054L14.6247 9.29033L15.2346 8.68043Z" fill="#808080"/>
</svg>
