<svg width="20" height="20" viewBox="0 0 20 20" fill="none" xmlns="http://www.w3.org/2000/svg">
<path d="M9.99735 18.3333C8.34918 18.3333 6.73804 17.8443 5.36763 16.9286C3.99722 16.013 2.9287 14.7119 2.29797 13.1892C1.66724 11.6665 1.5028 9.99045 1.82434 8.37394C2.14588 6.75743 2.93918 5.27261 4.10461 4.10718C5.27005 2.94174 6.75487 2.14845 8.37138 1.8269C9.98789 1.50536 11.6639 1.66981 13.1866 2.30054C14.7094 2.93127 16.0104 3.99979 16.9261 5.3702C17.8417 6.74061 18.3307 8.35174 18.3307 9.99992C18.328 12.2092 17.4491 14.3272 15.8868 15.8894C14.3246 17.4516 12.2067 18.3306 9.99735 18.3333ZM9.16402 8.33325C8.94301 8.33325 8.73111 8.42111 8.57483 8.57739C8.41855 8.73367 8.33069 8.94557 8.33069 9.16658V14.1666C8.33069 14.3876 8.41855 14.5995 8.57483 14.7558C8.73111 14.9121 8.94301 14.9999 9.16402 14.9999H10.8307C11.0517 14.9999 11.2636 14.9121 11.4199 14.7558C11.5762 14.5995 11.664 14.3876 11.664 14.1666V9.16658C11.664 8.94557 11.5762 8.73367 11.4199 8.57739C11.2636 8.42111 11.0517 8.33325 10.8307 8.33325H9.16402ZM9.99735 4.16658C9.66772 4.16658 9.34533 4.26421 9.07125 4.44735C8.79717 4.63048 8.58379 4.89069 8.45764 5.19523C8.33149 5.49977 8.29812 5.83547 8.36243 6.15877C8.42673 6.48207 8.58588 6.77855 8.81897 7.01164C9.05206 7.24472 9.34853 7.40387 9.67183 7.46818C9.99514 7.53249 10.3308 7.49911 10.6354 7.37296C10.9399 7.24682 11.2001 7.03344 11.3833 6.75936C11.5664 6.48528 11.664 6.16289 11.664 5.83325C11.664 5.39122 11.4883 4.96743 11.1757 4.65487C10.8632 4.3423 10.4394 4.16658 9.99735 4.16658Z" fill="#808080"/>
</svg>
