<svg width="16" height="16" viewBox="0 0 16 16" fill="none" xmlns="http://www.w3.org/2000/svg">
<path d="M10.0193 6.61671L12.0026 3.33337L11.3359 1.33337H4.66927L4.0026 3.33337L5.98594 6.61671C6.09729 6.80072 6.16248 7.00893 6.17594 7.22359C6.1894 7.43825 6.15073 7.65298 6.06324 7.84945C5.97574 8.04593 5.84201 8.21832 5.67346 8.35193C5.5049 8.48553 5.30653 8.57637 5.09527 8.61671L2.41927 9.12737C2.1147 9.18551 1.83992 9.34798 1.64219 9.58683C1.44447 9.82568 1.33617 10.126 1.33594 10.436V14C1.33594 14.1769 1.40618 14.3464 1.5312 14.4714C1.65622 14.5965 1.82579 14.6667 2.0026 14.6667H14.0026C14.1794 14.6667 14.349 14.5965 14.474 14.4714C14.599 14.3464 14.6693 14.1769 14.6693 14V10.436C14.6692 10.1259 14.561 9.82541 14.3632 9.58642C14.1655 9.34743 13.8906 9.18487 13.5859 9.12671L10.9099 8.61604C10.6988 8.57566 10.5005 8.48482 10.332 8.35126C10.1636 8.21771 10.0299 8.04539 9.9424 7.84901C9.85492 7.65262 9.81622 7.43799 9.8296 7.22342C9.84299 7.00885 9.90806 6.8007 10.0193 6.61671ZM13.3359 13.3334H2.66927V12H13.3359V13.3334Z" fill="#4D4D4D"/>
</svg>
