<svg width="20" height="20" viewBox="0 0 20 20" fill="none" xmlns="http://www.w3.org/2000/svg">
<path fill-rule="evenodd" clip-rule="evenodd" d="M16 17.496H4C3.44772 17.496 3 17.0482 3 16.496V5.50195H17V16.496C17 17.0482 16.5523 17.496 16 17.496ZM11 11.996V14.996H14V11.996H11ZM6 14.996V11.996H9V14.996H6ZM11 6.99595V9.99595H14V6.99595H11ZM6 9.99595V6.99595H9V9.99595H6Z" fill="#888DAC"/>
<path d="M16.9941 5.50195H2.99414V3.50195C2.99414 2.94967 3.44186 2.50195 3.99414 2.50195H15.9941C16.5464 2.50195 16.9941 2.94967 16.9941 3.50195V5.50195Z" fill="#535482"/>
</svg>
