<svg width="14" height="14" viewBox="0 0 14 14" fill="none" xmlns="http://www.w3.org/2000/svg">
<path d="M7.00257 13.6668C5.68403 13.6668 4.39512 13.2756 3.29879 12.5431C2.20247 11.8106 1.34765 10.7697 0.843065 9.55156C0.338481 8.33339 0.206924 6.99255 0.464159 5.69935C0.721394 4.40614 1.35603 3.21829 2.28838 2.28594C3.22073 1.35359 4.40858 0.718952 5.70179 0.461718C6.995 0.204483 8.33583 0.33604 9.554 0.840624C10.7722 1.34521 11.813 2.20003 12.5455 3.29635C13.2781 4.39268 13.6692 5.68159 13.6692 7.00013C13.6671 8.76759 12.9639 10.4619 11.7142 11.7117C10.4644 12.9615 8.77003 13.6647 7.00257 13.6668ZM6.3359 5.6668C6.15909 5.6668 5.98957 5.73708 5.86455 5.86211C5.73953 5.98713 5.66924 6.15665 5.66924 6.33346V10.3335C5.66924 10.5103 5.73953 10.6798 5.86455 10.8048C5.98957 10.9298 6.15909 11.0001 6.3359 11.0001H7.66924C7.84605 11.0001 8.01557 10.9298 8.14059 10.8048C8.26562 10.6798 8.3359 10.5103 8.3359 10.3335V6.33346C8.3359 6.15665 8.26562 5.98713 8.14059 5.86211C8.01557 5.73708 7.84605 5.6668 7.66924 5.6668H6.3359ZM7.00257 2.33346C6.73886 2.33346 6.48095 2.41156 6.26169 2.55807C6.04242 2.70458 5.87172 2.91274 5.7708 3.15638C5.66988 3.40001 5.64318 3.66857 5.69463 3.92721C5.74607 4.18585 5.87339 4.42303 6.05986 4.6095C6.24633 4.79597 6.48351 4.92329 6.74215 4.97474C7.0008 5.02619 7.26935 4.99948 7.51299 4.89857C7.75662 4.79765 7.96479 4.62695 8.11129 4.40768C8.2578 4.18842 8.3359 3.9305 8.3359 3.6668C8.3359 3.31317 8.19533 2.97414 7.94528 2.72409C7.69523 2.47404 7.35619 2.33346 7.00257 2.33346Z" fill="#4D4D4D"/>
</svg>
