<svg width="24" height="24" viewBox="0 0 24 24" fill="none" xmlns="http://www.w3.org/2000/svg">
<path d="M11 2.5C11 2.22386 11.2238 2 11.5 2H12.5C12.7761 2 13 2.22386 13 2.5V6.5C13 6.77614 12.7761 7 12.5 7H11.5C11.2238 7 11 6.77614 11 6.5V2.5Z" fill="#808080"/>
<path d="M11 17.5C11 17.2239 11.2238 17 11.5 17H12.5C12.7761 17 13 17.2239 13 17.5V21.5C13 21.7761 12.7761 22 12.5 22H11.5C11.2238 22 11 21.7761 11 21.5V17.5Z" fill="#808080"/>
<path d="M21.5 11.0001C21.7761 11.0001 22 11.2239 22 11.5001V12.5001C22 12.7762 21.7761 13.0001 21.5 13.0001H17.5C17.2239 13.0001 17 12.7762 17 12.5001V11.5001C17 11.2239 17.2239 11.0001 17.5 11.0001H21.5Z" fill="#808080"/>
<path d="M6.5 11C6.77614 11 7 11.2239 7 11.5V12.5C7 12.7762 6.77614 13 6.5 13H2.5C2.22386 13 2 12.7762 2 12.5L2 11.5C2 11.2239 2.22386 11 2.5 11H6.5Z" fill="#808080"/>
<path d="M18.0104 4.57537C18.2056 4.38011 18.5222 4.38011 18.7175 4.57537L19.4246 5.28248C19.6199 5.47774 19.6199 5.79432 19.4246 5.98958L16.5962 8.81801C16.4009 9.01327 16.0843 9.01327 15.8891 8.81801L15.182 8.1109C14.9867 7.91564 14.9867 7.59906 15.182 7.4038L18.0104 4.57537Z" fill="#808080"/>
<path d="M7.40378 15.182C7.59905 14.9867 7.91563 14.9867 8.11089 15.182L8.818 15.8891C9.01326 16.0843 9.01326 16.4009 8.818 16.5962L5.98957 19.4246C5.79431 19.6199 5.47773 19.6199 5.28246 19.4246L4.57536 18.7175C4.38009 18.5222 4.38009 18.2057 4.57536 18.0104L7.40378 15.182Z" fill="#808080"/>
<path d="M19.4246 18.0104C19.6198 18.2057 19.6198 18.5223 19.4246 18.7176L18.7175 19.4247C18.5222 19.6199 18.2056 19.6199 18.0104 19.4247L15.1819 16.5962C14.9867 16.401 14.9867 16.0844 15.1819 15.8891L15.889 15.182C16.0843 14.9868 16.4009 14.9868 16.5961 15.182L19.4246 18.0104Z" fill="#808080"/>
<path d="M8.81797 7.40384C9.01323 7.5991 9.01323 7.91569 8.81797 8.11095L8.11086 8.81805C7.9156 9.01332 7.59902 9.01332 7.40376 8.81805L4.57533 5.98963C4.38007 5.79437 4.38007 5.47778 4.57533 5.28252L5.28244 4.57541C5.4777 4.38015 5.79428 4.38015 5.98954 4.57541L8.81797 7.40384Z" fill="#808080"/>
</svg>
