<svg width="20" height="20" viewBox="0 0 20 20" fill="none" xmlns="http://www.w3.org/2000/svg">
<path d="M15.8334 19.1668H4.15857C3.71813 19.1644 3.29646 18.9876 2.98588 18.6753C2.6753 18.363 2.50085 17.9406 2.50085 17.5002L2.50736 2.50016C2.50736 2.05929 2.68208 1.63659 2.9932 1.32422C3.30433 1.01185 3.72665 0.83526 4.16752 0.833496H12.5009L17.5009 5.8335V17.5002C17.5009 17.7191 17.4577 17.9359 17.3739 18.1382C17.2901 18.3404 17.1674 18.5246 17.0126 18.6794C16.8577 18.8341 16.6737 18.9562 16.4714 19.0399C16.2691 19.1236 16.0523 19.1669 15.8334 19.1668ZM7.21765 9.84717C6.88007 9.84691 6.54607 9.91642 6.23702 10.0522C5.92797 10.1881 5.6505 10.3869 5.4224 10.6357C5.19431 10.8846 5.02059 11.1779 4.91215 11.4976C4.80371 11.8172 4.76291 12.1566 4.79252 12.4928C4.76256 12.9764 4.87626 13.4582 5.11967 13.8771C5.36308 14.2961 5.72556 14.6329 6.16052 14.8464C6.59549 15.0598 7.08402 15.1404 7.56433 15.0767C8.04464 15.0129 8.49488 14.8078 8.85909 14.4883V12.2064H7.06222V13.0316H7.9574V14.0317C7.77259 14.1656 7.54815 14.2333 7.32019 14.223C6.35602 14.223 5.82524 13.597 5.82524 12.4603C5.82524 11.4011 6.38596 10.7171 7.25346 10.7171C7.43898 10.7149 7.62321 10.7508 7.79382 10.8237C7.96444 10.8966 8.11724 11.0047 8.24386 11.1403L8.78259 10.499C8.58089 10.2881 8.33741 10.1214 8.06807 10.0091C7.79873 9.89682 7.50942 9.84203 7.21765 9.84717ZM12.1997 9.94238V15.0002H13.2105V12.9478H15.0074V12.103H13.2105V10.7839H15.3166V9.94157L12.1997 9.94238ZM9.9504 9.94238V15.0002H10.9611V9.94238H9.9504ZM11.6708 2.08187V6.6652H16.2541L11.6708 2.08187Z" fill="#26B56E"/>
</svg>
