<svg width="16" height="16" viewBox="0 0 16 16" fill="none" xmlns="http://www.w3.org/2000/svg">
<g id="ico_0256_chat_ai">
<path id="Vector" fill-rule="evenodd" clip-rule="evenodd" d="M10.6684 1.96369C10.932 2.09592 11.1854 2.24758 11.4265 2.41742C12.2747 3.01453 12.9554 3.81946 13.4034 4.75509L13.4202 4.7911C14.0041 5.99951 14.1525 7.37254 13.8403 8.67781C13.4356 9.95184 12.7054 11.0981 11.7217 12.0034C11.1957 12.5409 10.6617 13.072 10.1277 13.6032C9.63556 14.0926 9.14337 14.5821 8.65726 15.0768C8.64598 15.0885 8.63246 15.0978 8.6175 15.104C8.60254 15.1103 8.58646 15.1135 8.57024 15.1134C8.5384 15.1134 8.50787 15.1008 8.48536 15.0783C8.46285 15.0558 8.4502 15.0252 8.4502 14.9934V13.4174C8.44835 13.3856 8.43397 13.3559 8.41023 13.3347C8.38648 13.3136 8.35531 13.3027 8.32356 13.3045L8.31866 13.3048C8.26278 13.3083 8.20843 13.3117 8.15012 13.3117C6.84572 13.3393 5.5671 12.9462 4.50348 12.1906C3.56347 11.5158 2.8379 10.5844 2.41368 9.50784C2.38967 9.44542 2.36627 9.38241 2.34346 9.31879C2.24754 9.04796 2.17132 8.77056 2.1154 8.48875C1.96177 7.71762 1.96153 6.92378 2.1147 6.15255C2.26788 5.38133 2.57146 4.64783 3.00811 3.99393C3.44477 3.34003 4.00595 2.77855 4.65961 2.34154C5.31326 1.90452 6.0466 1.60054 6.81774 1.44695H6.82134C8.12559 1.18986 9.47825 1.37155 10.6684 1.96369ZM7.09855 5.23405V9.43524C7.09855 9.67401 7.19346 9.90292 7.36229 10.0718C7.53112 10.2406 7.76004 10.3355 7.9988 10.3355C8.23756 10.3355 8.46648 10.2406 8.63531 10.0718C8.80414 9.90292 8.89906 9.67401 8.89906 9.43524V5.23405C8.89906 4.99528 8.80414 4.76637 8.63531 4.59754C8.46648 4.42871 8.23756 4.33379 7.9988 4.33379C7.76004 4.33379 7.53112 4.42871 7.36229 4.59754C7.19346 4.76637 7.09855 4.99528 7.09855 5.23405ZM9.79931 6.1343V8.53499C9.79931 8.77375 9.89423 9.00267 10.0631 9.1715C10.2319 9.34033 10.4608 9.43524 10.6996 9.43524C10.9383 9.43524 11.1672 9.34033 11.3361 9.1715C11.5049 9.00267 11.5998 8.77375 11.5998 8.53499V6.1343C11.5998 5.89554 11.5049 5.66662 11.3361 5.49779C11.1672 5.32896 10.9383 5.23405 10.6996 5.23405C10.4608 5.23405 10.2319 5.32896 10.0631 5.49779C9.89423 5.66662 9.79931 5.89554 9.79931 6.1343ZM4.39778 6.1343V8.53499C4.39778 8.77375 4.49269 9.00267 4.66152 9.1715C4.83035 9.34033 5.05927 9.43524 5.29803 9.43524C5.5368 9.43524 5.76571 9.34033 5.93454 9.1715C6.10337 9.00267 6.19829 8.77375 6.19829 8.53499V6.1343C6.19829 5.89554 6.10337 5.66662 5.93454 5.49779C5.76571 5.32896 5.5368 5.23405 5.29803 5.23405C5.05927 5.23405 4.83035 5.32896 4.66152 5.49779C4.49269 5.66662 4.39778 5.89554 4.39778 6.1343Z" fill="#1760CC"/>
</g>
</svg>
