<svg width="20" height="20" viewBox="0 0 20 20" fill="none" xmlns="http://www.w3.org/2000/svg">
<g id="ico_0028_refresh">
<path id="Vector" d="M15.2875 4.70341C14.1195 3.5318 12.5969 2.77925 10.9567 2.56294C9.31659 2.34662 7.65093 2.67867 6.2191 3.50739C4.78727 4.3361 3.66963 5.61499 3.04017 7.14492C2.41071 8.67485 2.30477 10.37 2.73884 11.9664C3.1729 13.5628 4.12262 14.9709 5.44012 15.9714C6.75763 16.972 8.36898 17.5088 10.0233 17.4984C11.6776 17.488 13.2821 16.9309 14.5869 15.9138C15.8917 14.8967 16.8236 13.4768 17.2375 11.8751H15.2875C14.9433 12.8467 14.3386 13.705 13.5395 14.3562C12.7404 15.0073 11.7777 15.4263 10.7566 15.5673C9.73549 15.7082 8.69528 15.5657 7.74966 15.1554C6.80405 14.7451 5.98943 14.0827 5.39486 13.2407C4.80028 12.3986 4.44863 11.4093 4.37835 10.3809C4.30806 9.35254 4.52185 8.32461 4.99633 7.4095C5.47081 6.4944 6.18774 5.72734 7.06873 5.19218C7.94973 4.65702 8.96089 4.37435 9.99169 4.37507C10.7287 4.37603 11.4582 4.52392 12.1374 4.81009C12.8167 5.09626 13.432 5.51497 13.9475 6.04174L10.9292 9.06091H17.4917V2.50007L15.2875 4.70341Z" fill="#808080"/>
</g>
</svg>
