<svg width="20" height="20" viewBox="0 0 20 20" fill="none" xmlns="http://www.w3.org/2000/svg">
<path d="M15.8334 19.1683H4.1602C3.71817 19.1683 3.29437 18.9926 2.98181 18.68C2.66925 18.3675 2.49353 17.9437 2.49353 17.5016L2.50492 2.50163C2.50492 2.06104 2.67919 1.63801 2.98995 1.32568C3.30071 1.01336 3.72287 0.837164 4.16345 0.834961H12.4968L17.4968 5.83496V17.5016C17.4968 17.9431 17.322 18.3667 17.0101 18.6792C16.6983 18.9917 16.2748 19.1674 15.8334 19.1683ZM8.37244 9.75179H8.35942C7.96861 9.76237 7.58707 9.874 7.25264 10.0765C6.91822 10.279 6.64235 10.5652 6.45186 10.9066C5.67686 12.2524 6.17455 14.3027 7.03455 15.5477C7.37621 16.0402 7.84541 16.7139 8.45707 16.7139H8.49125C8.72052 16.6987 8.94455 16.6385 9.15043 16.5365C9.41512 16.4067 9.7069 16.3382 10.0017 16.3363C10.2815 16.3376 10.5571 16.4039 10.8073 16.5291C11.0183 16.6364 11.2494 16.6949 11.486 16.7H11.5186C12.1644 16.6892 12.5722 16.0938 12.9297 15.5697C13.2032 15.1673 13.4173 14.7283 13.5661 14.2651C13.2019 14.1087 12.8915 13.8493 12.6726 13.5189C12.4536 13.1885 12.3361 12.8011 12.334 12.4048C12.3366 12.0534 12.4284 11.7083 12.601 11.4022C12.7736 11.0961 13.021 10.8392 13.3204 10.6551L13.3285 10.6494C13.138 10.3768 12.8882 10.1517 12.5961 9.99268C12.304 9.83361 11.9779 9.74438 11.6455 9.73226C11.5963 9.7272 11.547 9.72487 11.4974 9.72494C11.1286 9.74748 10.7669 9.8387 10.4314 9.99349C10.2578 10.0763 10.072 10.1304 9.88123 10.1546C9.688 10.134 9.49976 10.0809 9.32458 9.99675L9.30994 9.99105C9.01921 9.85366 8.70475 9.77267 8.38383 9.7526L8.37244 9.75179ZM11.6537 7.50163C11.1285 7.55078 10.6424 7.80021 10.2963 8.19824C10.1225 8.39034 9.98986 8.61576 9.90564 8.86068C9.82142 9.1056 9.78752 9.3649 9.80636 9.62321C9.83772 9.62486 9.86939 9.62486 9.90076 9.62321C10.1471 9.61055 10.3878 9.54556 10.6071 9.43278C10.8265 9.32 11.0199 9.16188 11.1735 8.96891C11.5201 8.56046 11.6926 8.0326 11.6537 7.49837V7.50163ZM11.6635 2.08496V6.66829H16.2468L11.6635 2.08496Z" fill="#A888D7"/>
</svg>
