<svg width="20" height="20" viewBox="0 0 20 20" fill="none" xmlns="http://www.w3.org/2000/svg">
<path d="M2.5 7.49974V12.4997H5.83333L10 16.6664V3.33307L5.83333 7.49974H2.5ZM13.75 9.99974C13.7498 9.30151 13.5547 8.61719 13.1866 8.02386C12.8186 7.43052 12.2921 6.95173 11.6667 6.64141V13.3497C12.2925 13.0421 12.8194 12.565 13.1877 11.9729C13.556 11.3807 13.7508 10.6971 13.75 9.99974ZM11.6667 2.69141V4.40807C12.8717 4.76616 13.9288 5.50396 14.6805 6.51155C15.4323 7.51915 15.8384 8.74263 15.8384 9.99974C15.8384 11.2569 15.4323 12.4803 14.6805 13.4879C13.9288 14.4955 12.8717 15.2333 11.6667 15.5914V17.3081C13.3233 16.9313 14.8027 16.0028 15.8624 14.675C16.9222 13.3471 17.4994 11.6986 17.4994 9.99974C17.4994 8.30084 16.9222 6.65234 15.8624 5.32449C14.8027 3.99663 13.3233 3.0682 11.6667 2.69141Z" fill="#0A81B6"/>
</svg>
