<svg width="20" height="20" viewBox="0 0 20 20" fill="none" xmlns="http://www.w3.org/2000/svg">
<g id="ico_0060_send">
<path id="Vector" d="M3.66667 17.0002L18.2083 10.7668C18.3587 10.7028 18.4868 10.596 18.5769 10.4597C18.667 10.3234 18.7151 10.1636 18.7151 10.0002C18.7151 9.83677 18.667 9.67698 18.5769 9.54066C18.4868 9.40435 18.3587 9.29753 18.2083 9.2335L3.66667 3.00016C3.54076 2.94524 3.40315 2.92253 3.26626 2.93408C3.12938 2.94563 2.99752 2.99108 2.88259 3.06632C2.76766 3.14157 2.67326 3.24424 2.60793 3.36508C2.54259 3.48592 2.50837 3.62112 2.50834 3.7585L2.50001 7.60016C2.49924 7.80249 2.57256 7.99811 2.70612 8.15009C2.83968 8.30208 3.02425 8.39992 3.22501 8.42516L15 10.0002L3.22501 11.5668C3.02413 11.5953 2.84025 11.6952 2.70709 11.8483C2.57393 12.0013 2.5004 12.1973 2.50001 12.4002L2.50834 16.2418C2.50837 16.3792 2.54259 16.5144 2.60793 16.6352C2.67326 16.7561 2.76766 16.8588 2.88259 16.934C2.99752 17.0092 3.12938 17.0547 3.26626 17.0662C3.40315 17.0778 3.54076 17.0551 3.66667 17.0002Z" fill="#4453E6"/>
</g>
</svg>
