<svg width="20" height="20" viewBox="0 0 20 20" fill="none" xmlns="http://www.w3.org/2000/svg">
<path d="M15.8333 19.1668H4.15934C3.71862 19.1648 3.29678 18.9885 2.98584 18.6761C2.6749 18.3638 2.5 17.9409 2.5 17.5002L2.50895 2.50016C2.50894 2.05986 2.68358 1.63731 2.99398 1.32503C3.30438 1.01276 3.72556 0.836138 4.16585 0.833496H12.4992L17.4992 5.8335V17.5002C17.4992 17.942 17.3233 18.366 17.0109 18.6785C16.6985 18.9911 16.2752 19.1666 15.8333 19.1668ZM13.3423 9.9432V15.0002H14.3538V12.9486H16.1483V12.1047H14.3538V10.7847H16.4567V9.9432H13.3423ZM8.46273 9.9432V15.0002H9.90316C10.2406 15.0285 10.58 14.9814 10.8968 14.8618C11.2136 14.7422 11.4997 14.5527 11.7342 14.3084C11.9687 14.0642 12.146 13.7713 12.2526 13.4499C12.3592 13.1285 12.3931 12.7873 12.3511 12.4513C12.3947 12.1123 12.3603 11.7674 12.2502 11.4438C12.1401 11.1203 11.9568 10.8265 11.7155 10.5845C11.4742 10.3424 11.181 10.1584 10.8577 10.0474C10.5345 9.9363 10.1902 9.90059 9.85107 9.9432H8.46273ZM3.90706 9.9432V15.0002H4.91781V13.2025H5.59245C6.81745 13.2025 7.54801 12.5776 7.54801 11.5301C7.54801 10.4826 6.88141 9.94645 5.56641 9.94645L3.90706 9.9432ZM11.6667 2.08187V6.6652H16.25L11.6667 2.08187ZM9.78841 14.1872H9.47428V10.7489H9.78841C10.8184 10.7489 11.32 11.3055 11.32 12.4505C11.32 13.5955 10.8043 14.188 9.7876 14.188L9.78841 14.1872ZM5.5249 12.4017H4.91781V10.7415H5.48991C6.23991 10.7415 6.55518 10.9768 6.55518 11.5285C6.55434 12.1176 6.21742 12.4033 5.52409 12.4033L5.5249 12.4017Z" fill="#B30B00"/>
</svg>
