<svg width="20" height="20" viewBox="0 0 20 20" fill="none" xmlns="http://www.w3.org/2000/svg">
<path d="M16.666 1.66663H3.33268C2.8921 1.66883 2.47031 1.8454 2.15955 2.15772C1.84879 2.47004 1.67434 2.89271 1.67435 3.33329L1.66602 18.3333L4.99935 15H16.666C17.1076 14.9986 17.5308 14.8226 17.8431 14.5103C18.1553 14.1981 18.3314 13.7749 18.3327 13.3333V3.33329C18.3314 2.89167 18.1553 2.46851 17.8431 2.15624C17.5308 1.84396 17.1076 1.66794 16.666 1.66663ZM4.99935 11.6666V9.60829L10.7327 3.87496C10.7714 3.83591 10.8175 3.80491 10.8683 3.78375C10.9191 3.7626 10.9735 3.75171 11.0285 3.75171C11.0835 3.75171 11.138 3.7626 11.1888 3.78375C11.2395 3.80491 11.2856 3.83591 11.3243 3.87496L12.7993 5.34996C12.8384 5.38869 12.8694 5.43478 12.8906 5.48555C12.9117 5.53633 12.9226 5.59079 12.9226 5.64579C12.9226 5.7008 12.9117 5.75526 12.8906 5.80603C12.8694 5.85681 12.8384 5.90289 12.7993 5.94163L7.05768 11.6666H4.99935ZM14.9993 11.6666H8.74935L10.416 9.99996H14.9993V11.6666Z" fill="#808080"/>
</svg>
