<svg width="20" height="20" viewBox="0 0 20 20" fill="none" xmlns="http://www.w3.org/2000/svg">
<path d="M15.8333 19.1683H4.15767C3.71709 19.1661 3.29493 18.9899 2.98417 18.6776C2.67341 18.3652 2.49914 17.9422 2.49915 17.5016L2.50891 2.50163C2.50758 2.06121 2.68117 1.6382 2.9915 1.32568C3.30182 1.01317 3.72377 0.836726 4.16418 0.834961H12.4975L17.4975 5.83496V17.5016C17.4975 17.9432 17.3221 18.3667 17.01 18.6792C16.698 18.9917 16.2749 19.1676 15.8333 19.1683ZM8.53267 13.6629L7.94918 14.3571C8.44635 14.8306 9.10589 15.0962 9.79244 15.0985C10.8866 15.0985 11.652 14.4686 11.652 13.5661C11.6607 13.2561 11.565 12.9516 11.3802 12.7026C11.1953 12.4537 10.9315 12.2744 10.6323 12.1932L9.96985 11.9141L9.91532 11.8921C9.50366 11.7254 9.17802 11.5967 9.17802 11.2492C9.17802 10.9209 9.45798 10.717 9.90881 10.717C10.3057 10.7201 10.6878 10.8683 10.983 11.1336L11.4957 10.4964C11.0748 10.0788 10.505 9.84587 9.91207 9.84782C9.69997 9.82318 9.48513 9.84199 9.28056 9.90316C9.07599 9.96432 8.88605 10.0664 8.72229 10.2035C8.55853 10.3405 8.42472 10.5093 8.32841 10.6999C8.2321 10.8904 8.17557 11.0987 8.16239 11.3118C8.17028 11.6167 8.27318 11.9108 8.45699 12.1541C8.6408 12.3974 8.89672 12.5776 9.18778 12.6685L9.86324 12.9574L9.91858 12.981C10.3436 13.161 10.6225 13.2785 10.6225 13.6393C10.6225 14.0002 10.3293 14.2228 9.81767 14.2228C9.3356 14.1995 8.87864 14.0002 8.53267 13.6637V13.6629ZM12.5504 9.94385V15.0016H13.9917C14.6519 14.9791 15.2767 14.6995 15.7332 14.222C16.1897 13.7445 16.4419 13.1068 16.4347 12.4463C16.4275 11.7857 16.1617 11.1543 15.6949 10.6868C15.2282 10.2194 14.5969 9.95284 13.9363 9.94466L12.5504 9.94385ZM3.81018 9.94385V15.0016H4.82336V13.2064H5.49801C6.72134 13.2064 7.45276 12.5807 7.45276 11.5316C7.45276 10.4824 6.78611 9.94792 5.47278 9.94792L3.81018 9.94385ZM11.665 2.08496V6.66829H16.2483L11.665 2.08496ZM13.8761 14.1895H13.5612V10.752H13.8761C14.9061 10.752 15.4077 11.3086 15.4077 12.4528C15.4077 13.597 14.8944 14.1878 13.8777 14.1878L13.8761 14.1895ZM5.42965 12.4032H4.82255V10.7446H5.39628C6.14628 10.7446 6.46073 10.9799 6.46073 11.5299C6.46407 12.1166 6.12625 12.4023 5.43209 12.4023L5.42965 12.4032Z" fill="#7D58B8"/>
</svg>
