<svg width="20" height="20" viewBox="0 0 20 20" fill="none" xmlns="http://www.w3.org/2000/svg">
<path d="M15.8333 19.1668H4.16016C3.71928 19.1651 3.29615 18.9885 2.98503 18.6761C2.67391 18.3637 2.5 17.941 2.5 17.5002L2.50977 2.50016C2.50976 2.05958 2.68403 1.63654 2.99479 1.32422C3.30555 1.0119 3.72771 0.835699 4.16829 0.833496H12.5016L17.5016 5.8335V17.5002C17.5016 17.7192 17.4585 17.9359 17.3747 18.1382C17.2908 18.3405 17.1683 18.5246 17.0133 18.6794C16.8584 18.8341 16.6738 18.957 16.4714 19.0407C16.269 19.1243 16.0523 19.167 15.8333 19.1668ZM14.471 14.6771L11.9824 14.6974C11.7196 15.6743 11.2767 16.5935 10.6771 17.4082C11.4842 17.2962 12.2523 16.9886 12.9134 16.5122C13.5745 16.0358 14.1093 15.4057 14.471 14.6755V14.6771ZM7.88737 14.7259L5.55339 14.7438C5.9123 15.4331 6.42602 16.0293 7.05404 16.487C7.68205 16.9447 8.40875 17.2515 9.1748 17.3822C8.59316 16.5797 8.15836 15.6801 7.89062 14.7259H7.88737ZM11.2109 14.7056L8.66374 14.7259C8.93012 15.6124 9.36159 16.4405 9.9349 17.1673C10.5041 16.4282 10.9368 15.5938 11.2142 14.7031L11.2109 14.7056ZM5.25716 10.8823C5.08502 11.3895 4.99672 11.9222 4.99837 12.4578C4.99647 12.9825 5.08158 13.5036 5.24902 14.0008L7.72135 13.9837C7.53254 12.9586 7.53411 11.9069 7.72624 10.8823H5.25716ZM8.48145 10.8823C8.26738 11.9046 8.26738 12.9607 8.48145 13.9829L11.4062 13.965C11.6037 12.946 11.5962 11.8978 11.3851 10.8815L8.48145 10.8823ZM12.1387 10.8823C12.3338 11.897 12.339 12.9394 12.1549 13.9561L14.777 13.9382C14.921 13.4577 14.9949 12.9595 14.9967 12.4578C14.9974 11.9222 14.9103 11.3895 14.738 10.8823H12.1387ZM9.17155 7.52946C8.41091 7.65851 7.69008 7.96126 7.06543 8.41406C6.44078 8.86687 5.92892 9.45738 5.56966 10.1401H7.90202C8.16795 9.20219 8.59741 8.31857 9.16992 7.52946H9.17155ZM9.9349 7.7443C9.37547 8.46144 8.94736 9.27282 8.6735 10.1401H11.1914C10.9179 9.27339 10.4931 8.46162 9.93815 7.74186L9.9349 7.7443ZM10.6738 7.50179C11.2528 8.2999 11.6884 9.19267 11.9613 10.1401H14.4238C14.056 9.43266 13.5229 8.82377 12.8711 8.36442C12.2193 7.90507 11.467 7.60867 10.6771 7.50016L10.6738 7.50179ZM11.6634 2.08512V6.66846H16.2467L11.6634 2.08512Z" fill="#5DAF0D"/>
</svg>
