<svg width="24" height="24" viewBox="0 0 24 24" fill="none" xmlns="http://www.w3.org/2000/svg">
<g id="ico_0029_search">
<path id="Vector" d="M19.4583 21.2299L14.9993 16.7749C14.9744 16.754 14.9521 16.7295 14.9338 16.7026C13.3897 17.808 11.4866 18.294 9.60181 18.062C7.71698 17.8299 5.98796 16.8976 4.75806 15.4506C3.52816 14.0036 2.88749 12.1471 2.96216 10.2495C3.03684 8.35187 3.82157 6.55236 5.16138 5.2065C6.50119 3.86063 8.29832 3.06708 10.1956 2.98384C12.0928 2.9006 13.952 3.53392 15.4045 4.75728C16.8571 5.98063 17.7968 7.70359 18.0374 9.58736C18.2779 11.4711 17.8018 13.3781 16.7034 14.9272C16.7324 14.9499 16.7593 14.9736 16.7835 15.0014L21.2317 19.4467C21.4073 19.6232 21.527 19.849 21.5754 20.0932C21.6239 20.3374 21.599 20.5896 21.5042 20.8198C21.4093 21.0499 21.2487 21.2471 21.0422 21.3862C20.8358 21.5252 20.5929 21.5996 20.344 21.601C20.1791 21.6008 20.0156 21.569 19.8635 21.5053C19.7115 21.4416 19.5741 21.3473 19.4583 21.2299ZM6.98462 6.98579C6.16237 7.80951 5.65159 8.89385 5.53834 10.0522C5.42508 11.2105 5.7164 12.3719 6.36353 13.3393C7.01066 14.3067 7.97329 15.0194 9.08716 15.3569C10.201 15.6943 11.3977 15.6365 12.4729 15.1909C13.5481 14.7453 14.436 13.94 14.9846 12.9135C15.5333 11.8871 15.7086 10.7016 15.4817 9.56001C15.2548 8.41846 14.6399 7.39048 13.7405 6.65181C12.8411 5.91314 11.713 5.50985 10.5491 5.50923C9.21273 5.51054 7.93095 6.04125 6.9856 6.98579H6.98462Z" fill="#1760CC"/>
</g>
</svg>
