<svg width="20" height="20" viewBox="0 0 20 20" fill="none" xmlns="http://www.w3.org/2000/svg">
<path d="M15.8333 19.1668H4.16178C3.72106 19.1648 3.29922 18.9885 2.98828 18.6761C2.67734 18.3638 2.50244 17.9409 2.50244 17.5002L2.51221 2.50016C2.5122 2.06001 2.6862 1.6381 2.99642 1.32585C3.30664 1.0136 3.72815 0.836357 4.16829 0.833496H12.5016L17.5016 5.8335V17.5002C17.5016 17.7192 17.4585 17.9359 17.3747 18.1382C17.2908 18.3405 17.1675 18.5246 17.0125 18.6794C16.8576 18.8341 16.6738 18.957 16.4714 19.0407C16.269 19.1243 16.0523 19.167 15.8333 19.1668ZM11.25 14.1668L14.8584 15.4168V9.5835L11.2492 10.8335V10.0002C11.2492 9.88966 11.2053 9.78371 11.1271 9.70557C11.049 9.62743 10.943 9.5835 10.8325 9.5835H5.83252C5.72201 9.5835 5.61606 9.62743 5.53792 9.70557C5.45978 9.78371 5.41585 9.88966 5.41585 10.0002V15.0002C5.41585 15.1107 5.45978 15.2166 5.53792 15.2948C5.61606 15.3729 5.72201 15.4168 5.83252 15.4168H10.8325C10.943 15.4168 11.049 15.3729 11.1271 15.2948C11.2053 15.2166 11.2492 15.1107 11.2492 15.0002V14.1668H11.25ZM11.6667 2.0835V6.66683H16.25L11.6667 2.0835Z" fill="#0A81B6"/>
</svg>
