<svg width="20" height="20" viewBox="0 0 20 20" fill="none" xmlns="http://www.w3.org/2000/svg">
<path d="M15.8333 19.1668H4.15771C3.71728 19.1644 3.29561 18.9876 2.98503 18.6753C2.67445 18.363 2.49999 17.9406 2.5 17.5002L2.50895 2.50016C2.50895 2.05958 2.68322 1.63654 2.99398 1.32422C3.30474 1.0119 3.7269 0.835699 4.16748 0.833496H12.5008L17.5008 5.8335V17.5002C17.5008 17.7191 17.4577 17.9359 17.3739 18.1382C17.2901 18.3404 17.1674 18.5246 17.0125 18.6794C16.8577 18.8341 16.6737 18.9562 16.4714 19.0399C16.269 19.1236 16.0523 19.1669 15.8333 19.1668ZM15.2751 9.97493C14.9508 9.98007 14.6307 10.0529 14.3359 10.1882C14.0411 10.3234 13.7783 10.5178 13.5628 10.7603C13.3474 11.0027 13.184 11.2874 13.0843 11.596C12.9846 11.9047 12.9505 12.2312 12.9834 12.5539C12.9472 12.8727 12.9784 13.1952 13.0754 13.5011C13.1724 13.807 13.3332 14.089 13.5465 14.3288C13.7599 14.5685 14.0214 14.7608 14.314 14.8927C14.6065 15.0246 14.9232 15.0934 15.2441 15.0946C15.5438 15.0999 15.841 15.0377 16.1133 14.9123C16.3855 14.7869 16.6256 14.6015 16.8164 14.3703L16.2964 13.755C16.1708 13.9044 16.0145 14.0252 15.8382 14.109C15.662 14.1929 15.4702 14.2378 15.2751 14.2409C14.4817 14.2409 13.9893 13.5829 13.9893 12.5229C13.9893 11.5046 14.5154 10.8205 15.297 10.8205C15.4688 10.8245 15.6373 10.8628 15.7935 10.9344C15.9496 11.0061 16.0902 11.1095 16.2052 11.2371L16.722 10.6105C16.5362 10.4125 16.3122 10.2535 16.0636 10.1442C15.815 10.0349 15.5466 9.97711 15.2751 9.97412V9.97493ZM10.1921 9.97493C8.83039 9.97493 7.98503 10.9474 7.98503 12.5124C7.98503 14.0774 8.85206 15.0962 10.1921 15.0962C11.5321 15.0962 12.3975 14.0824 12.3975 12.5124C12.3975 10.9699 11.5313 9.97412 10.1904 9.97412L10.1921 9.97493ZM3.60352 10.0661V14.9993H5.00977C5.65362 14.9773 6.26369 14.704 6.70898 14.2384C7.15428 13.7729 7.40003 13.1517 7.39339 12.5075C7.38675 11.8633 7.12797 11.2475 6.67318 10.7912C6.21838 10.3349 5.60348 10.0748 4.95931 10.0661H3.60352ZM11.6667 2.08431V6.66764H16.25L11.6667 2.08431ZM10.1921 14.2401C9.46206 14.2401 8.99089 13.5624 8.99089 12.5124C8.99089 11.4624 9.45206 10.8205 10.1921 10.8205C10.9321 10.8205 11.3892 11.4682 11.3892 12.5124C11.3892 13.5565 10.9163 14.2393 10.1904 14.2393L10.1921 14.2401ZM4.89583 14.2083H4.59066V10.8555H4.89583C5.90083 10.8555 6.38997 11.3965 6.38997 12.5124C6.38997 13.6282 5.88585 14.2075 4.89502 14.2075L4.89583 14.2083Z" fill="#1760CC"/>
</svg>
