<svg width="20" height="20" viewBox="0 0 20 20" fill="none" xmlns="http://www.w3.org/2000/svg">
<path d="M15.8333 19.1668H4.16016C3.71972 19.1644 3.29805 18.9876 2.98747 18.6753C2.67689 18.363 2.50243 17.9406 2.50244 17.5002L2.50814 2.50016C2.50813 2.05958 2.6824 1.63654 2.99316 1.32422C3.30392 1.0119 3.72608 0.835699 4.16667 0.833496H12.5L17.5 5.8335V17.5002C17.5 17.9422 17.3243 18.366 17.0117 18.6785C16.6992 18.9911 16.2754 19.1668 15.8333 19.1668ZM7.08333 14.3866V16.4772H13.0436V15.5413H8.27474V14.3866H7.08333ZM10 13.2855C9.92745 13.2847 9.85559 13.298 9.78841 13.3254C9.72123 13.3528 9.65987 13.3937 9.60856 13.445C9.55726 13.4963 9.51715 13.5568 9.48975 13.624C9.46234 13.6912 9.44828 13.7631 9.44906 13.8356C9.44906 13.9805 9.50693 14.1197 9.60938 14.2222C9.71182 14.3246 9.85024 14.3825 9.99512 14.3825C10.14 14.3825 10.2792 14.3246 10.3817 14.2222C10.4841 14.1197 10.542 13.9805 10.542 13.8356C10.5435 13.7636 10.5303 13.6926 10.5037 13.6256C10.4772 13.5587 10.4378 13.4972 10.3874 13.4458C10.3369 13.3944 10.2764 13.3539 10.21 13.3262C10.1435 13.2984 10.072 13.2844 10 13.2847V13.2855ZM9.99105 10.2069C8.16855 10.2069 7.16471 10.6627 7.16471 11.4902C7.16471 12.3177 8.16521 12.7728 9.99105 12.7728C11.8169 12.7728 12.8239 12.3169 12.8239 11.4902C12.8239 10.6636 11.8177 10.2061 9.99186 10.2061L9.99105 10.2069ZM6.5332 8.92106V9.82845H13.4163V8.92106H10.5949V8.1984H9.38395V8.92106H6.5332ZM11.6642 2.08756V6.6709H16.2476L11.6642 2.08756ZM9.99105 11.9346C8.94688 11.9346 8.4611 11.7943 8.4611 11.4935C8.4611 11.1927 8.91855 11.0524 9.99105 11.0524C11.0635 11.0524 11.521 11.1843 11.521 11.4935C11.521 11.8027 11.036 11.9305 9.99186 11.9305L9.99105 11.9346Z" fill="#D92A21"/>
</svg>
