<svg width="20" height="20" viewBox="0 0 20 20" fill="none" xmlns="http://www.w3.org/2000/svg">
<path d="M15 18.3332H4.16667C3.72498 18.3321 3.30142 18.1564 2.9891 17.8441C2.67677 17.5318 2.5011 17.1082 2.5 16.6665V3.33317C2.5 2.89114 2.67572 2.46735 2.98828 2.15479C3.30084 1.84222 3.72464 1.6665 4.16667 1.6665H11.6667L16.6667 6.6665V9.99984H18.3333V14.9998H16.6667V16.6665C16.6656 17.1082 16.4899 17.5318 16.1776 17.8441C15.8652 18.1564 15.4417 18.3321 15 18.3332ZM4.17155 3.33317V16.6665H15V14.9998H6.66667V9.99984H15V7.49984H10.8333V3.33317H4.17155Z" fill="#70749A"/>
</svg>
