<svg width="20" height="20" viewBox="0 0 20 20" fill="none" xmlns="http://www.w3.org/2000/svg">
<path d="M15.8333 19.1668H4.15845C3.71801 19.1644 3.29634 18.9876 2.98576 18.6753C2.67518 18.363 2.50073 17.9406 2.50073 17.5002L2.50968 2.50016C2.50968 2.05972 2.68413 1.63733 2.99471 1.32503C3.30529 1.01273 3.72696 0.835919 4.1674 0.833496H12.5007L17.5007 5.8335V17.5002C17.5007 17.7191 17.4576 17.9359 17.3738 18.1382C17.29 18.3404 17.1673 18.5246 17.0125 18.6794C16.8576 18.8341 16.6736 18.9562 16.4713 19.0399C16.269 19.1236 16.0522 19.1669 15.8333 19.1668ZM12.9532 13.6606L12.3697 14.3573C12.8686 14.8286 13.5283 15.0927 14.2146 15.0946C15.3096 15.0946 16.075 14.4662 16.075 13.5671C16.0838 13.2566 15.9879 12.9516 15.8031 12.702C15.6183 12.4524 15.3556 12.2723 15.0561 12.1901L14.3888 11.9118L14.344 11.8947C13.9273 11.728 13.5945 11.5994 13.5945 11.2485C13.5945 10.9202 13.8744 10.7171 14.3253 10.7171C14.7223 10.7172 15.1041 10.8658 15.3971 11.1338L15.9097 10.4966C15.7014 10.2898 15.4547 10.1261 15.183 10.0148C14.9113 9.90357 14.6205 9.84754 14.3269 9.84879C14.1149 9.82416 13.8999 9.84225 13.6954 9.90332C13.4909 9.96438 13.3009 10.0668 13.1371 10.2036C12.9734 10.3405 12.8396 10.5097 12.7432 10.7C12.6468 10.8904 12.5898 11.0982 12.5764 11.3112C12.5845 11.6162 12.6875 11.9105 12.871 12.1543C13.0546 12.3981 13.3101 12.579 13.601 12.6711L14.2781 12.9559L14.3391 12.9819C14.7616 13.1628 15.0382 13.2803 15.0382 13.6395C15.0382 13.9987 14.7434 14.223 14.2309 14.223C13.7488 14.1996 13.2919 13.9997 12.9467 13.6623L12.9532 13.6606ZM3.83537 9.94401L5.16919 12.3903L3.74504 15.001H4.81763L5.35799 13.8804C5.49883 13.587 5.6316 13.2737 5.72827 13.047H5.7535C5.83683 13.207 5.90596 13.3623 5.96346 13.4865L5.97323 13.5076C6.03406 13.6368 6.09143 13.7579 6.15226 13.8812L6.71948 15.0018H7.83927L6.42244 12.4391L7.75545 9.94564H6.69019L6.21248 10.9832C6.10998 11.2057 6.00966 11.4457 5.87882 11.784H5.83325L5.6355 11.36C5.58133 11.2409 5.52138 11.1099 5.45972 10.9832L4.95435 9.94564L3.83537 9.94401ZM8.76457 9.94401V15.0002H11.8253V14.1522H9.77531V9.9432L8.76457 9.94401ZM11.6658 2.08105V6.66439H16.2491L11.6658 2.08105Z" fill="#5DAF0D"/>
</svg>
