<svg width="20" height="20" viewBox="0 0 20 20" fill="none" xmlns="http://www.w3.org/2000/svg">
<path d="M15.8333 19.1668H4.16012C3.7191 19.1653 3.29629 18.9893 2.98499 18.6769C2.67369 18.3645 2.49914 17.9412 2.49915 17.5002L2.50891 2.50016C2.5089 2.05972 2.68336 1.63733 2.99394 1.32503C3.30452 1.01273 3.72619 0.835919 4.16663 0.833496H12.5L17.5 5.8335V17.5002C17.5 17.9422 17.3242 18.366 17.0117 18.6785C16.6991 18.9911 16.2753 19.1668 15.8333 19.1668ZM13.2454 9.94482V15.0002H14.2594V13.2033H14.9357C16.159 13.2033 16.8888 12.5776 16.8888 11.5293C16.8888 10.481 16.2222 9.94564 14.9072 9.94564L13.2454 9.94482ZM11.5185 11.2282H11.5429L11.5332 11.3299C11.489 11.7691 11.4225 12.4325 11.4225 12.8892V15.0002H12.3429V9.94482H11.2215L10.38 12.3073C10.3225 12.474 10.2665 12.6613 10.2132 12.833L10.1977 12.8843C10.1577 13.0159 10.114 13.153 10.0732 13.2863H10.0382L10.0016 13.1675L9.95113 13.0006C9.8803 12.769 9.80813 12.5314 9.72896 12.3081L8.86877 9.94564H7.74735V15.0002H8.65556V12.8892C8.65556 12.485 8.59726 11.92 8.54976 11.4666C8.5406 11.3833 8.53283 11.2999 8.52616 11.2282H8.55383L8.95748 12.4196L9.74198 14.5444H10.3247L11.1067 12.4196L11.5161 11.229L11.5185 11.2282ZM3.4399 9.94482V15.0002H5.2441C6.47327 15.0002 7.20618 14.4434 7.20618 13.5109C7.22277 13.2294 7.13484 12.9514 6.95959 12.7305C6.78435 12.5096 6.53354 12.3617 6.25566 12.3138V12.2821C6.46741 12.1908 6.64696 12.0376 6.76998 11.8426C6.89299 11.6476 6.95383 11.4195 6.94495 11.1891C6.94495 10.3633 6.32895 9.94401 5.11145 9.94401L3.4399 9.94482ZM11.6683 2.08431V6.66764H16.2516L11.6683 2.08431ZM5.15458 14.2222H4.45308V12.7516H5.15458C5.88208 12.7516 6.22148 12.974 6.22148 13.4499C6.22064 13.9615 5.86127 14.2214 5.15377 14.2214L5.15458 14.2222ZM14.8657 12.4025H14.2594V10.7448H14.8307C15.5807 10.7448 15.8976 10.9793 15.8976 11.5285C15.8967 12.1168 15.559 12.4025 14.8649 12.4025H14.8657ZM5.04065 12.0029H4.45308V10.7163H5.05367C5.682 10.7163 5.96187 10.908 5.96187 11.3389C5.96187 11.7697 5.64234 12.0005 5.03984 12.0005L5.04065 12.0029Z" fill="#2494C5"/>
</svg>
