<svg width="20" height="20" viewBox="0 0 20 20" fill="none" xmlns="http://www.w3.org/2000/svg">
<path d="M15.8333 19.1668H4.1569C3.71661 19.1642 3.29461 18.9876 2.98421 18.6753C2.67381 18.363 2.49999 17.9405 2.5 17.5002L2.50651 2.50016C2.50651 2.05929 2.68123 1.63659 2.99235 1.32422C3.30347 1.01185 3.7258 0.83526 4.16667 0.833496H12.5L17.5 5.8335V17.5002C17.5 17.9422 17.3243 18.366 17.0117 18.6785C16.6992 18.9911 16.2754 19.1668 15.8333 19.1668ZM14.5638 9.84798C14.2262 9.84772 13.893 9.91724 13.584 10.0531C13.2749 10.1889 12.9975 10.3877 12.7694 10.6366C12.5413 10.8854 12.3676 11.1787 12.2591 11.4984C12.1507 11.8181 12.1099 12.1574 12.1395 12.4937C12.1045 12.8289 12.1415 13.1676 12.2485 13.4873C12.3556 13.807 12.5298 14.1 12.7596 14.3467C12.9894 14.5933 13.2694 14.7878 13.5807 14.9172C13.892 15.0465 14.2269 15.1081 14.5638 15.097C15.1679 15.1092 15.7547 14.8917 16.2052 14.4891V12.2056H14.4076V13.0332H15.3035V14.0334C15.1177 14.1649 14.8931 14.2318 14.6655 14.223C13.703 14.223 13.1722 13.597 13.1722 12.4603C13.1722 11.4028 13.7321 10.7204 14.5988 10.7204C14.7845 10.7173 14.9691 10.7534 15.14 10.8262C15.3108 10.899 15.4644 11.0067 15.5908 11.1427L16.1312 10.4998C15.9287 10.2895 15.6845 10.1231 15.415 10.0107C15.1455 9.89836 14.8558 9.84301 14.5638 9.84717V9.84798ZM4.17969 13.6948L3.479 14.2067C3.62816 14.4905 3.85653 14.7254 4.13574 14.883C4.41495 15.0405 4.73368 15.1144 5.05371 15.0954C5.276 15.1041 5.49725 15.0636 5.70231 14.9774C5.90737 14.8911 6.09104 14.7607 6.24023 14.5957C6.38943 14.4307 6.50054 14.2355 6.56575 14.0228C6.63097 13.8101 6.64889 13.5855 6.61784 13.3652V9.94238H5.60628V13.2855C5.60628 13.9405 5.40497 14.2197 4.93164 14.2197C4.76976 14.2126 4.61361 14.1587 4.48079 14.0659C4.34798 13.9731 4.24366 13.8444 4.18132 13.6948H4.17969ZM7.83366 9.94482V15.0002H8.8444V13.2025H9.5223C10.7456 13.2025 11.4771 12.5768 11.4771 11.5293C11.4771 10.4818 10.8097 9.94564 9.493 9.94564L7.83366 9.94482ZM11.6667 2.0835V6.66683H16.25L11.6667 2.0835ZM9.45312 12.4049H8.84603V10.744H9.42139C10.1714 10.744 10.4867 10.9793 10.4867 11.5309C10.485 12.1176 10.1473 12.4033 9.4515 12.4033L9.45312 12.4049Z" fill="#FD9C36"/>
</svg>
