<svg width="20" height="20" viewBox="0 0 20 20" fill="none" xmlns="http://www.w3.org/2000/svg">
<path d="M15.8333 19.1668H4.16007C3.71891 19.1655 3.29642 18.9893 2.98494 18.6769C2.67346 18.3645 2.49829 17.9413 2.49829 17.5002L2.50806 2.50016C2.50805 2.05958 2.68232 1.63654 2.99308 1.32422C3.30384 1.0119 3.726 0.835699 4.16659 0.833496H12.4999L17.4999 5.8335V17.5002C17.4999 17.9422 17.3242 18.366 17.0116 18.6785C16.6991 18.9911 16.2753 19.1668 15.8333 19.1668ZM13.9835 10.7847V15.0002H14.9942V10.7822H16.4298V9.93994H12.5634V10.7822L13.9835 10.7847ZM8.54972 9.94238V15.0002H9.56047V13.2008H10.2392C11.4625 13.2008 12.1923 12.5752 12.1923 11.5269C12.1923 10.4785 11.5257 9.9432 10.2107 9.9432L8.54972 9.94238ZM3.99243 9.94238V15.0002H5.00399V13.2008H5.68026C6.90526 13.2008 7.63664 12.5752 7.63664 11.5269C7.63664 10.4785 6.97003 9.9432 5.65503 9.9432L3.99243 9.94238ZM11.665 2.08431V6.66764H16.2483L11.665 2.08431ZM10.17 12.4041H9.56047V10.7432H10.135C10.885 10.7432 11.2035 10.9785 11.2035 11.5285C11.2044 12.1176 10.8667 12.4041 10.1708 12.4041H10.17ZM5.61353 12.4041H5.00399V10.7432H5.57853C6.32853 10.7432 6.64217 10.9785 6.64217 11.5285C6.64384 12.1176 6.30684 12.4041 5.61434 12.4041H5.61353Z" fill="#C83510"/>
</svg>
