<svg width="20" height="20" viewBox="0 0 20 20" fill="none" xmlns="http://www.w3.org/2000/svg">
<path d="M15.8333 19.1668H4.1569C3.71661 19.1642 3.29543 18.9876 2.98503 18.6753C2.67462 18.363 2.49999 17.9405 2.5 17.5002L2.50977 2.50016C2.50822 2.05997 2.68152 1.63755 2.99154 1.32503C3.30155 1.01252 3.72322 0.835481 4.16341 0.833496H12.5L17.5 5.8335V17.5002C17.5 17.9422 17.3243 18.366 17.0117 18.6785C16.6992 18.9911 16.2754 19.1668 15.8333 19.1668ZM8.04362 9.9432L9.37663 12.3895L7.96061 15.0026H9.03158L9.56868 13.8828C9.68118 13.6461 9.79232 13.397 9.93815 13.0495H9.96419C10.0167 13.1545 10.0648 13.2547 10.1107 13.3514C10.1315 13.3947 10.1501 13.4342 10.1693 13.4792C10.2343 13.6158 10.2963 13.7495 10.363 13.882L10.9277 15.0018H12.0475L10.6315 12.4375L11.9645 9.9432H10.9017L10.4248 10.9832C10.3073 11.2332 10.2013 11.4932 10.0863 11.7816H10.0553L9.98372 11.6326C9.93622 11.5326 9.89272 11.4394 9.85189 11.3494C9.79189 11.2211 9.7344 11.0991 9.67773 10.9832L9.17318 9.9432H8.04362ZM13.61 10.7855V15.0002H14.6224V10.783H16.0596V9.94075H12.1908V10.783L13.61 10.7855ZM5.37109 10.7855V15.0002H6.38184V10.783H7.81575V9.94075H3.94694V10.783L5.37109 10.7855ZM11.6667 2.08431V6.66764H16.25L11.6667 2.08431Z" fill="#4453E6"/>
</svg>
