<svg xmlns="http://www.w3.org/2000/svg" width="80" height="80" viewBox="0 0 80 80">
    <defs>
        <linearGradient id="3ll28fgzda" x1=".5" x2=".5" y2="1" gradientUnits="objectBoundingBox">
            <stop offset="0" stop-color="#e0e0e0"/>
            <stop offset="1" stop-color="#eee"/>
        </linearGradient>
    </defs>
    <path data-name="* area" style="fill:none" d="M0 0h80v80H0z"/>
    <path d="M10325.514 11881.486a12 12 0 1 1 8.486 3.514 11.92 11.92 0 0 1-8.486-3.514zm12.3-1.488 3.181-3.178-3.816-3.818 3.819-3.821-3.184-3.181-3.815 3.818-3.818-3.818-3.181 3.181 3.818 3.818-3.818 3.821 3.181 3.178 3.818-3.816zm-17.091 0H10279a2 2 0 0 1-2-2v-36a2 2 0 0 1 2-2h52a2 2 0 0 1 2 2v16.031a15.009 15.009 0 0 0-12.271 21.966zm-29.826-32.313a3.832 3.832 0 0 0-1.51 1.423 3.927 3.927 0 0 0 1.51 5.507 4.768 4.768 0 0 0 4.317 0 3.927 3.927 0 0 0 0-6.93 4.745 4.745 0 0 0-4.317 0zm36.578 5.662.683 1.652h1.871l-3.443-7.7h-1.76l-3.434 7.7h1.828l.681-1.652zm-11.8-4.595h2.464v6.248h1.781v-6.247h2.464v-1.452h-6.709zm-1.552 4.595.684 1.652h1.87l-3.445-7.7h-1.758l-3.434 7.7h1.826l.683-1.652zm-13.5 1.652h3.5a4.909 4.909 0 0 0 2.214-.48 3.629 3.629 0 0 0 1.5-1.348 4.124 4.124 0 0 0 0-4.046 3.634 3.634 0 0 0-1.5-1.349 4.943 4.943 0 0 0-2.214-.477h-3.5zm-17.873-4.675 3.837 4.675h1.462v-7.7h-1.76v4.672l-3.828-4.672h-1.474v7.7h1.76v-4.675zm59.244 9.984a14.792 14.792 0 0 0-6-2.181V11842a5.008 5.008 0 0 0-5-5h-49v-10a2 2 0 0 1 2-2h13a2.006 2.006 0 0 1 2 2v3h41a2 2 0 0 1 2 2v28.308zm-50.172-7.01a2.255 2.255 0 0 1-.862-.874 2.736 2.736 0 0 1 0-2.551 2.235 2.235 0 0 1 .862-.877 2.579 2.579 0 0 1 2.465 0 2.26 2.26 0 0 1 .864.877 2.751 2.751 0 0 1 0 2.551 2.273 2.273 0 0 1-.864.874 2.579 2.579 0 0 1-2.465 0zm10.582.235v-4.772h1.629a2.593 2.593 0 0 1 1.841.644 2.549 2.549 0 0 1 0 3.484 2.6 2.6 0 0 1-1.841.645zm24.507-1.539zm-2.44 0 1.221-2.947 1.22 2.947zm-13.353 0 1.22-2.947 1.221 2.947z" transform="translate(-10270 -11813)" style="fill:url(#3ll28fgzda)"/>
</svg>
