<svg xmlns="http://www.w3.org/2000/svg" width="80" height="80" viewBox="0 0 80 80">
    <defs>
        <linearGradient id="86g6dgr9ra" x1=".691" y1=".141" x2=".273" y2="1.035" gradientUnits="objectBoundingBox">
            <stop offset="0" stop-color="#e0e0e0"/>
            <stop offset="1" stop-color="#ccc"/>
        </linearGradient>
        <linearGradient id="2l88km9ohb" x1="1" y1=".5" x2=".279" y2=".694" gradientUnits="objectBoundingBox">
            <stop offset="0" stop-color="#ccc"/>
            <stop offset="1" stop-color="#b3b3b3"/>
        </linearGradient>
    </defs>
    <path data-name="* area" style="fill:none" d="M0 0h80v80H0z"/>
    <path d="M6718-15718a33.783 33.783 0 0 1-13.233-2.672 33.885 33.885 0 0 1-10.807-7.285 33.884 33.884 0 0 1-7.287-10.809A33.771 33.771 0 0 1 6684-15752a33.765 33.765 0 0 1 2.672-13.232 33.879 33.879 0 0 1 7.287-10.808 33.89 33.89 0 0 1 10.807-7.287A33.8 33.8 0 0 1 6718-15786a33.808 33.808 0 0 1 13.235 2.672 33.89 33.89 0 0 1 10.807 7.287 33.879 33.879 0 0 1 7.286 10.808A33.781 33.781 0 0 1 6752-15752a33.783 33.783 0 0 1-2.672 13.234 33.884 33.884 0 0 1-7.286 10.809 33.89 33.89 0 0 1-10.807 7.285A33.787 33.787 0 0 1 6718-15718zm0-50a16.016 16.016 0 0 0-16 16 16.018 16.018 0 0 0 16 16 16.02 16.02 0 0 0 16-16 16.018 16.018 0 0 0-16-16z" transform="translate(-6678 15792)" style="fill:#e0e0e0"/>
    <path d="M6691.011-15745.068a33.8 33.8 0 0 1 2.67-13.232 33.953 33.953 0 0 1 7.29-10.808 33.836 33.836 0 0 1 10.808-7.286 33.761 33.761 0 0 1 13.232-2.674v18a16.016 16.016 0 0 0-16 16 15.931 15.931 0 0 0 1.06 5.729l-16.781 6.545a33.831 33.831 0 0 1-2.279-12.274z" transform="translate(-6685.012 15785.066)" style="fill:url(#86g6dgr9ra)"/>
    <path d="M6702.907-15776.476q.914-.453 1.859-.854A33.826 33.826 0 0 1 6718-15780v18a15.9 15.9 0 0 0-6.859 1.547z" transform="translate(-6678.001 15786)" style="fill:url(#2l88km9ohb)"/>
</svg>
