<svg width="20" height="20" viewBox="0 0 20 20" fill="none" xmlns="http://www.w3.org/2000/svg">
<path d="M17.5 15.8333V4.16667C17.4987 3.72504 17.3227 3.30189 17.0104 2.98961C16.6981 2.67734 16.275 2.50132 15.8333 2.5H4.16667C3.72504 2.50132 3.30189 2.67734 2.98961 2.98961C2.67734 3.30189 2.50132 3.72504 2.5 4.16667V15.8333C2.50132 16.275 2.67734 16.6981 2.98961 17.0104C3.30189 17.3227 3.72504 17.4987 4.16667 17.5H15.8333C16.275 17.4987 16.6981 17.3227 17.0104 17.0104C17.3227 16.6981 17.4987 16.275 17.5 15.8333ZM7.08333 11.25L9.16667 13.7583L12.0833 10L15.8333 15H4.16667L7.08333 11.25Z" fill="#26B56E"/>
</svg>
