<svg width="20" height="20" viewBox="0 0 20 20" fill="none" xmlns="http://www.w3.org/2000/svg">
<path d="M15.8342 19.1668H4.16101C3.72057 19.1644 3.2989 18.9876 2.98832 18.6753C2.67774 18.363 2.50329 17.9406 2.5033 17.5002L2.50981 2.50016C2.5098 2.05914 2.68516 1.6358 2.99646 1.3234C3.30776 1.01101 3.72976 0.83504 4.17078 0.833496H12.5041L17.5041 5.8335V17.5002C17.5041 17.7193 17.4611 17.9366 17.3772 18.139C17.2932 18.3414 17.1701 18.5254 17.015 18.6802C16.8599 18.835 16.6756 18.9571 16.473 19.0407C16.2704 19.1243 16.0533 19.1673 15.8342 19.1668ZM15.1831 9.84635C14.8455 9.84598 14.5117 9.91566 14.2025 10.0514C13.8934 10.1872 13.6161 10.386 13.3879 10.6349C13.1597 10.8838 12.9853 11.177 12.8768 11.4967C12.7683 11.8165 12.7276 12.1557 12.7572 12.492C12.7273 12.9758 12.8415 13.4573 13.0852 13.8763C13.3288 14.2953 13.6908 14.633 14.126 14.8464C14.5612 15.0597 15.0502 15.1391 15.5306 15.075C16.0111 15.0109 16.4622 14.8058 16.8262 14.4858V12.2072H15.0285V13.0316H15.9245V14.0317C15.74 14.165 15.5155 14.2326 15.2881 14.223C14.3215 14.223 13.7883 13.597 13.7883 12.4603C13.7883 11.4011 14.349 10.7171 15.2173 10.7171C15.4032 10.7141 15.5877 10.7503 15.7585 10.8237C15.9293 10.8971 16.0828 11.0058 16.2085 11.1427L16.7473 10.4998C16.5448 10.2897 16.3013 10.1239 16.0319 10.0116C15.7626 9.89919 15.4733 9.84332 15.1815 9.84717L15.1831 9.84635ZM7.89229 9.94157V15.0002H8.85177V12.9673C8.85177 12.5165 8.80558 12.0446 8.76225 11.5879L8.75655 11.5212C8.74572 11.4145 8.73642 11.3087 8.72725 11.207H8.76225L9.27413 12.2902L10.7373 14.9993H11.7611V9.94075H10.8049V11.9565C10.8049 12.474 10.8672 13.0772 10.918 13.5605L10.9359 13.7266H10.9009L10.3964 12.6344L8.92582 9.94157H7.89229ZM3.33582 9.94157V15.0002H4.34819V13.2025H5.02527C6.2486 13.2025 6.97839 12.576 6.97839 11.526C6.97839 10.476 6.31179 9.94238 4.99679 9.94238L3.33582 9.94157ZM11.6691 2.08105V6.66439H16.2525L11.6691 2.08105ZM4.9561 12.4025H4.34819V10.7415H4.9211C5.6711 10.7415 5.98718 10.976 5.98718 11.526C5.98552 12.1177 5.64782 12.4041 4.95365 12.4041L4.9561 12.4025Z" fill="#7D58B8"/>
</svg>
