<svg width="20" height="20" viewBox="0 0 20 20" fill="none" xmlns="http://www.w3.org/2000/svg">
<g id="ico_0026_note">
<path id="Vector" d="M15.8337 2.5H4.15875C3.71803 2.50165 3.29595 2.67797 2.98501 2.99031C2.67408 3.30265 2.49967 3.72553 2.5 4.16625L2.50875 15.8325C2.50808 16.2732 2.68218 16.6962 2.99288 17.0088C3.30358 17.3214 3.72553 17.498 4.16625 17.5H12.5L17.5 12.5V4.16625C17.4987 3.72474 17.3227 3.30169 17.0105 2.98949C16.6983 2.67729 16.2753 2.50132 15.8337 2.5ZM5.83375 6.66625H14.1675V8.33375H5.83375V6.66625ZM10 11.6663H5.83375V10H10V11.6663ZM11.6663 16.25V11.6663H16.25L11.6663 16.25Z" fill="#808080"/>
</g>
</svg>
