<svg width="20" height="20" viewBox="0 0 20 20" fill="none" xmlns="http://www.w3.org/2000/svg">
<path d="M15.8333 19.1683H4.16016C3.71928 19.1665 3.29615 18.9899 2.98503 18.6776C2.67391 18.3652 2.5 17.9425 2.5 17.5016L2.50977 2.50163C2.50976 2.06133 2.68439 1.63877 2.99479 1.3265C3.30519 1.01422 3.72637 0.837603 4.16667 0.834961H12.5L17.5 5.83496V17.5016C17.5 17.9437 17.3243 18.3675 17.0117 18.68C16.6992 18.9926 16.2754 19.1683 15.8333 19.1683ZM11.7692 9.94466V15.0033H12.7799V13.2031H13.457C14.6812 13.2031 15.4102 12.5775 15.4102 11.5291C15.4102 10.4808 14.7435 9.94548 13.4326 9.94548L11.7692 9.94466ZM9.3099 9.94466V15.0033H10.3206V9.94466H9.3099ZM6.94336 10.7869L4.58984 14.3929V15.0033H8.20964V14.1553H5.83333L8.18359 10.5452V9.94385H4.81445V10.7861L6.94336 10.7869ZM11.6667 2.08577V6.66911H16.25L11.6667 2.08577ZM13.387 12.4056H12.7799V10.7446H13.3545C14.1003 10.7446 14.4189 10.9799 14.4189 11.5299C14.4164 12.1166 14.0837 12.4032 13.387 12.4032V12.4056Z" fill="#0A81B6"/>
</svg>
