<svg width="20" height="20" viewBox="0 0 20 20" fill="none" xmlns="http://www.w3.org/2000/svg">
<g id="ico_0174_info">
<path id="Vector" d="M9.99931 18.3334C8.35113 18.3334 6.74 17.8444 5.36959 16.9288C3.99918 16.0131 2.93066 14.712 2.29993 13.1893C1.6692 11.6666 1.50475 9.99057 1.82629 8.37406C2.14784 6.75755 2.94113 5.27274 4.10657 4.1073C5.272 2.94186 6.75682 2.14857 8.37333 1.82702C9.98984 1.50548 11.6659 1.66993 13.1886 2.30066C14.7113 2.93139 16.0123 3.99991 16.928 5.37032C17.8437 6.74073 18.3326 8.35186 18.3326 10C18.33 12.2094 17.451 14.3273 15.8888 15.8895C14.3266 17.4518 12.2086 18.3307 9.99931 18.3334ZM9.16597 8.33337C8.94496 8.33337 8.73306 8.42123 8.57678 8.57751C8.4205 8.73379 8.33264 8.94569 8.33264 9.16671V14.1667C8.33264 14.3877 8.4205 14.5996 8.57678 14.7559C8.73306 14.9122 8.94496 15 9.16597 15H10.8326C11.0537 15 11.2656 14.9122 11.4218 14.7559C11.5781 14.5996 11.666 14.3877 11.666 14.1667V9.16671C11.666 8.94569 11.5781 8.73379 11.4218 8.57751C11.2656 8.42123 11.0537 8.33337 10.8326 8.33337H9.16597ZM9.99931 4.16671C9.66967 4.16671 9.34728 4.26433 9.0732 4.44747C8.79912 4.6306 8.58574 4.89081 8.45959 5.19535C8.33345 5.4999 8.30007 5.83559 8.36438 6.15889C8.42869 6.4822 8.58783 6.77867 8.82092 7.01176C9.05401 7.24485 9.35048 7.40399 9.67379 7.4683C9.99709 7.53261 10.3328 7.49923 10.6373 7.37309C10.9419 7.24694 11.2021 7.03356 11.3852 6.75948C11.5683 6.4854 11.666 6.16301 11.666 5.83337C11.666 5.39135 11.4903 4.96755 11.1777 4.65499C10.8651 4.34243 10.4413 4.16671 9.99931 4.16671Z" fill="#808080"/>
</g>
</svg>
