<svg width="20" height="20" viewBox="0 0 20 20" fill="none" xmlns="http://www.w3.org/2000/svg">
<path d="M15.8333 19.1683H4.16178C3.72062 19.167 3.29813 18.9908 2.98665 18.6784C2.67517 18.366 2.5 17.9428 2.5 17.5016L2.50977 2.50163C2.50976 2.06104 2.68403 1.63801 2.99479 1.32568C3.30555 1.01336 3.72771 0.837164 4.16829 0.834961H12.5016L17.5016 5.83496V17.5016C17.5016 17.7206 17.4585 17.9373 17.3747 18.1396C17.2908 18.342 17.1683 18.526 17.0133 18.6808C16.8584 18.8356 16.6738 18.9585 16.4714 19.0422C16.269 19.1258 16.0523 19.1685 15.8333 19.1683ZM5.83333 14.1683V15.835H11.6667V14.1683H5.83333ZM5.83333 11.6683V13.335H14.1667V11.6683H5.83333ZM5.83333 9.16829V10.835H14.1667V9.16829H5.83333ZM11.6667 2.08496V6.66829H16.25L11.6667 2.08496Z" fill="#4453E6"/>
</svg>
