<svg width="20" height="20" viewBox="0 0 20 20" fill="none" xmlns="http://www.w3.org/2000/svg">
<path d="M12.5 0.833496H4.16667C3.72501 0.833496 3.30834 1.01683 2.99167 1.32516C2.67501 1.6335 2.50834 2.0585 2.50834 2.50016V17.5002C2.50001 17.9418 2.67501 18.3668 2.98334 18.6752C3.29167 18.9835 3.71667 19.1668 4.15834 19.1668H15.8333C16.05 19.1668 16.2667 19.1252 16.475 19.0418C16.675 18.9585 16.8583 18.8335 17.0167 18.6835C17.175 18.5252 17.2917 18.3418 17.375 18.1418C17.4583 17.9418 17.5 17.7252 17.5 17.5002V5.8335L12.5 0.833496ZM11.6667 2.0835L16.25 6.66683H11.6667V2.0835ZM6.45834 14.3918H5.65834V12.6502H4.13334V14.3918H3.32501V10.3668H4.13334V11.9502H5.65834V10.3668H6.45834V14.3918ZM9.88334 11.0418H8.74167V14.3918H7.93334V11.0418H6.80001V10.3752H9.87501V11.0418H9.88334ZM13.8833 14.3918H13.15V12.7085C13.15 12.3585 13.2 11.8585 13.2417 11.4835V11.3918H13.2333L12.9083 12.3335L12.2917 14.0252H11.8333L11.2083 12.3335L10.8917 11.3918H10.8667C10.8667 11.4502 10.875 11.5168 10.8833 11.5752C10.9167 11.9418 10.9667 12.3835 10.9667 12.7085V14.3918H10.2417V10.3668H11.1333L11.8167 12.2502C11.875 12.4252 11.9333 12.6002 11.9833 12.7835C12.0083 12.8668 12.0333 12.9418 12.0583 13.0252H12.0833C12.125 12.9085 12.1583 12.7835 12.1917 12.6668C12.2333 12.5252 12.275 12.3835 12.325 12.2502L12.9917 10.3668H13.8833V14.3918ZM16.6667 14.3918H14.2333V10.3668H15.0417V13.7168H16.675V14.3918H16.6667Z" fill="#34CDD2"/>
</svg>
