<svg xmlns="http://www.w3.org/2000/svg" width="80" height="80" viewBox="0 0 80 80">
    <defs>
        <linearGradient id="045sleed1a" x1=".5" x2=".5" y2="1" gradientUnits="objectBoundingBox">
            <stop offset="0" stop-color="#ccc"/>
            <stop offset="1" stop-color="#e0e0e0"/>
        </linearGradient>
    </defs>
    <path data-name="* area" style="fill:none" d="M0 0h80v80H0z"/>
    <path data-name="Subtraction 70" d="M6742-14191h-42a15.9 15.9 0 0 1-11.312-4.686A15.9 15.9 0 0 1 6684-14207a15.943 15.943 0 0 1 4.291-10.9 15.948 15.948 0 0 1 10.49-5.052 22.841 22.841 0 0 1 3.082-6.8 23.1 23.1 0 0 1 5.021-5.4 22.949 22.949 0 0 1 6.525-3.56A22.94 22.94 0 0 1 6721-14240a22.939 22.939 0 0 1 7.593 1.283 22.941 22.941 0 0 1 6.523 3.56 23.093 23.093 0 0 1 5.02 5.4 22.862 22.862 0 0 1 3.082 6.8 15.953 15.953 0 0 1 10.49 5.052A15.943 15.943 0 0 1 6758-14207a15.9 15.9 0 0 1-4.687 11.314A15.9 15.9 0 0 1 6742-14191zm-12-15.5a3.007 3.007 0 0 0-3.005 3 3.006 3.006 0 0 0 3.005 3h7a3 3 0 0 0 3-3 3 3 0 0 0-3-3zm-25.005 0a3 3 0 0 0-3 3 3 3 0 0 0 3 3h16.007a3 3 0 0 0 2.995-3 3 3 0 0 0-2.995-3zm13-9a3.006 3.006 0 0 0-3 3.006 3 3 0 0 0 3 3h19a3 3 0 0 0 3-3 3.006 3.006 0 0 0-3-3.006zm-13 0a3.006 3.006 0 0 0-3 3.006 3 3 0 0 0 3 3h4a3.005 3.005 0 0 0 3.006-3 3.01 3.01 0 0 0-3.006-3.006z" transform="translate(-6681.001 14253.5)" style="fill:url(#045sleed1a)"/>
</svg>
