<svg width="89" height="26" viewBox="0 0 89 26" fill="none" xmlns="http://www.w3.org/2000/svg">
<path d="M8.40405 8.48945C9.22751 8.52663 9.97835 8.69362 10.6557 8.99054C11.4402 9.32986 12.0975 9.81761 12.6277 10.4537L10.9729 11.9815C10.2668 11.1661 9.40256 10.7324 8.37945 10.6815L8.17358 10.6764C7.48413 10.6764 6.86816 10.831 6.3272 11.1386C5.78658 11.4355 5.36192 11.8539 5.05442 12.3946C4.75743 12.9355 4.60901 13.5515 4.60901 14.2409C4.60903 14.9301 4.75761 15.5452 5.05442 16.086C5.36192 16.6268 5.7865 17.0512 6.3272 17.3588C6.86816 17.6558 7.48413 17.8042 8.17358 17.8042C9.28689 17.8041 10.22 17.3647 10.9729 16.4848L12.6277 18.0114C12.0974 18.6582 11.4404 19.1519 10.6557 19.4913C9.87078 19.8307 8.99509 20.0002 8.02986 20.0002C6.89499 20.0001 5.86582 19.7565 4.94307 19.2686C4.03104 18.7701 3.30976 18.086 2.77947 17.2164C2.25975 16.336 2.00002 15.344 2 14.2409C2 13.1378 2.25973 12.1508 2.77947 11.281C3.30976 10.4008 4.03104 9.71665 4.94307 9.22878C5.86572 8.73034 6.90007 8.48177 8.04539 8.48169L8.40405 8.48945Z" fill="#808080"/>
<path d="M26.179 8.48945C27.0024 8.52663 27.7533 8.69362 28.4306 8.99054C29.2151 9.32986 29.8724 9.81761 30.4026 10.4537L28.7479 11.9815C28.0418 11.1661 27.1775 10.7324 26.1544 10.6815L25.9485 10.6764C25.2591 10.6764 24.6431 10.831 24.1021 11.1386C23.5615 11.4355 23.1369 11.8539 22.8294 12.3946C22.5324 12.9355 22.3839 13.5515 22.3839 14.2409C22.384 14.9301 22.5326 15.5452 22.8294 16.086C23.1369 16.6268 23.5614 17.0512 24.1021 17.3588C24.6431 17.6558 25.2591 17.8042 25.9485 17.8042C27.0618 17.8041 27.9949 17.3647 28.7479 16.4848L30.4026 18.0114C29.8724 18.6582 29.2154 19.1519 28.4306 19.4913C27.6457 19.8307 26.77 20.0002 25.8048 20.0002C24.6699 20.0001 23.6408 19.7565 22.718 19.2686C21.806 18.7701 21.0847 18.086 20.5544 17.2164C20.0347 16.336 19.775 15.344 19.7749 14.2409C19.7749 13.1378 20.0347 12.1508 20.5544 11.281C21.0847 10.4008 21.806 9.71665 22.718 9.22878C23.6407 8.73034 24.675 8.48177 25.8203 8.48169L26.179 8.48945Z" fill="#808080"/>
<path fill-rule="evenodd" clip-rule="evenodd" d="M81.9393 8.47133C82.8619 8.47141 83.6785 8.69897 84.3891 9.15498C85.1103 9.60047 85.678 10.2535 86.0917 11.1127C86.5052 11.9718 86.7119 13.0111 86.7119 14.2306C86.7119 15.4501 86.5052 16.4894 86.0917 17.3484C85.6781 18.2076 85.1103 18.8656 84.3891 19.3217C83.6785 19.7671 82.8619 19.9897 81.9393 19.9898C81.0271 19.9898 80.2095 19.7672 79.4883 19.3217C78.7671 18.8656 78.1992 18.2075 77.7856 17.3484C77.3721 16.4894 77.1654 15.45 77.1654 14.2306C77.1654 13.0111 77.3722 11.9717 77.7856 11.1127C78.1992 10.2536 78.7671 9.60047 79.4883 9.15498C80.2095 8.69888 81.0271 8.47133 81.9393 8.47133ZM81.9393 10.6505C81.515 10.6505 81.1378 10.7729 80.8089 11.0169C80.4909 11.2609 80.2359 11.6481 80.045 12.1783C79.8648 12.7086 79.7744 13.3928 79.7744 14.2306C79.7744 15.0684 79.8648 15.7525 80.045 16.2828C80.2359 16.813 80.4908 17.2003 80.8089 17.4443C81.1378 17.6882 81.515 17.8107 81.9393 17.8107C82.374 17.8106 82.7503 17.6881 83.0684 17.4443C83.3972 17.2003 83.652 16.8131 83.8323 16.2828C84.0232 15.7525 84.1184 15.0684 84.1184 14.2306C84.1184 13.3928 84.0232 12.7086 83.8323 12.1783C83.652 11.648 83.3971 11.2609 83.0684 11.0169C82.7503 10.773 82.374 10.6506 81.9393 10.6505Z" fill="#808080"/>
<path d="M34.3737 11.25V15.7209C34.3738 17.0997 34.9526 17.7887 36.1088 17.7887C36.7026 17.7886 37.1802 17.5981 37.5408 17.2164C37.9012 16.824 38.0807 16.2459 38.0807 15.4826V11.25H40.5629V19.8098H38.2089V18.7921C37.8801 19.1633 37.4867 19.4491 37.0307 19.6506C36.5748 19.8413 36.082 19.9367 35.552 19.9367C34.4277 19.9367 33.5359 19.6139 32.8783 18.9669C32.2207 18.32 31.8917 17.3599 31.8916 16.0873V11.25H34.3737Z" fill="#808080"/>
<path fill-rule="evenodd" clip-rule="evenodd" d="M45.1555 12.1563C45.7813 11.4669 46.641 11.1218 47.7334 11.1218C48.5289 11.1218 49.25 11.3086 49.897 11.6798C50.5545 12.0404 51.0692 12.554 51.4404 13.2219C51.8116 13.8795 51.9971 14.649 51.9972 15.5292C51.9972 16.4096 51.8116 17.1839 51.4404 17.8521C51.0692 18.5097 50.5547 19.0243 49.897 19.3955C49.25 19.7561 48.5289 19.9367 47.7334 19.9367C46.5561 19.9367 45.6593 19.5657 45.0441 18.8232V19.8098H42.6747V8.00391H45.1555V12.1563ZM47.3036 13.1585C46.6674 13.1586 46.1426 13.3764 45.7291 13.8111C45.3261 14.2353 45.1245 14.8081 45.1244 15.5292C45.1244 16.2505 45.326 16.8294 45.7291 17.2643C46.1426 17.6882 46.6675 17.8999 47.3036 17.9C47.94 17.9 48.4607 17.6886 48.8638 17.2643C49.2774 16.8294 49.484 16.2505 49.484 15.5292C49.4839 14.8082 49.2773 14.2353 48.8638 13.8111C48.4607 13.3762 47.94 13.1585 47.3036 13.1585Z" fill="#808080"/>
<path fill-rule="evenodd" clip-rule="evenodd" d="M57.5894 11.1218C58.4272 11.1218 59.1856 11.3024 59.8644 11.663C60.5431 12.0236 61.0738 12.5432 61.4557 13.2219C61.8481 13.8902 62.0435 14.6706 62.0435 15.5616C62.0434 15.5944 62.0273 15.8172 61.9956 16.2297H55.5203C55.637 16.76 55.9128 17.1794 56.3477 17.487C56.7826 17.7945 57.3244 17.9479 57.9714 17.9479C58.4166 17.9479 58.8091 17.8848 59.1483 17.7576C59.4983 17.6197 59.8212 17.4068 60.1181 17.1206L61.4388 18.5526C60.6327 19.4752 59.4551 19.9367 57.9066 19.9367C56.9416 19.9367 56.0879 19.7511 55.3455 19.38C54.603 18.9981 54.0304 18.4724 53.6273 17.8042C53.2244 17.1361 53.0227 16.3777 53.0227 15.5292C53.0227 14.6914 53.2194 13.938 53.6118 13.2698C54.0147 12.5914 54.5606 12.0665 55.2497 11.6954C55.9498 11.3135 56.7302 11.1218 57.5894 11.1218ZM57.6049 12.9992C57.0428 12.9992 56.5703 13.1588 56.1884 13.477C55.8067 13.7952 55.5741 14.2307 55.4892 14.7822H59.7051C59.6202 14.2412 59.3865 13.8107 59.0046 13.4925C58.6229 13.164 58.1563 12.9992 57.6049 12.9992Z" fill="#808080"/>
<path d="M74.985 16.8396C75.4197 16.8396 75.786 16.9832 76.0829 17.2695C76.3799 17.5452 76.5284 17.9113 76.5284 18.3674C76.5283 18.8235 76.3799 19.1995 76.0829 19.4965C75.786 19.7829 75.4198 19.9264 74.985 19.9264C74.561 19.9262 74.1957 19.7827 73.8883 19.4965C73.5913 19.1995 73.4429 18.8235 73.4429 18.3674C73.4429 17.9113 73.5913 17.5452 73.8883 17.2695C74.1957 16.9834 74.5611 16.8397 74.985 16.8396Z" fill="#808080"/>
<path d="M68.4242 8.4778C69.1247 8.50801 69.7441 8.64315 70.2823 8.88437C70.9081 9.14954 71.3904 9.5268 71.7299 10.0147C72.0797 10.5025 72.2555 11.0854 72.2555 11.764C72.2555 12.1246 72.2073 12.4858 72.1118 12.8464C72.0269 13.1964 71.8463 13.5676 71.5706 13.96C71.3054 14.3524 70.9133 14.7928 70.3936 15.2806L67.826 17.6993H72.6207V19.7995H64.2045V18.1292L68.5006 14.0713C68.8399 13.7638 69.0887 13.4878 69.2477 13.2439C69.4068 13 69.5132 12.7774 69.5662 12.5758C69.6299 12.3743 69.6621 12.1888 69.6621 12.0191C69.6621 11.5736 69.5074 11.2347 69.1998 11.0014C68.9029 10.7575 68.4635 10.635 67.8804 10.6349C67.4137 10.6349 66.9783 10.7252 66.5753 10.9055C66.1829 11.0858 65.8489 11.3667 65.5731 11.7485L63.6957 10.5391C64.1199 9.90286 64.7138 9.39927 65.4773 9.02809C66.241 8.65685 67.1216 8.47133 68.1187 8.47133L68.4242 8.4778Z" fill="#808080"/>
<path d="M18.2846 16.3255H13.7826V14.3367H18.2846V16.3255Z" fill="#808080"/>
</svg>
