<svg xmlns="http://www.w3.org/2000/svg" width="64" height="64" viewBox="0 0 64 64">
    <path data-name="img area" style="fill:none" d="M0 0h64v64H0z"/>
    <rect width="30" height="52" rx="2.098" transform="translate(17 6)" style="fill:#fff"/>
    <path d="M1151.1 5902a2.1 2.1 0 0 1-2.1-2.1v-47.8a2.1 2.1 0 0 1 2.1-2.1h25.8a2.1 2.1 0 0 1 2.1 2.1v47.8a2.1 2.1 0 0 1-2.1 2.1zm-1.1-2.1a1.1 1.1 0 0 0 1.1 1.1h25.8a1.1 1.1 0 0 0 1.1-1.1v-7.9h-28zm0-8.9h28v-34h-28zm0-38.9v3.9h28v-3.9a1.1 1.1 0 0 0-1.1-1.1h-25.8a1.1 1.1 0 0 0-1.1 1.1zm11.5 45.9a1.5 1.5 0 1 1 0-3h5a1.5 1.5 0 1 1 0 3zm-.5-1.5a.5.5 0 0 0 .5.5h5a.5.5 0 1 0 0-1h-5a.5.5 0 0 0-.5.5z" transform="translate(-1132 -5844)" style="stroke:transparent"/>
    <path d="M587 519h5l-5 5zm0 0v-16.829a1.171 1.171 0 0 1 1.171-1.171h23.658a1.171 1.171 0 0 1 1.171 1.171v15.657a1.171 1.171 0 0 1-1.171 1.172z" transform="translate(-550 -484)" style="fill:#9aa7fa"/>
    <rect data-name="Rectangle 15660" width="18" height="2" rx="1" transform="translate(41 22)" style="fill:#fff"/>
    <rect data-name="Rectangle 15661" width="11" height="2" rx="1" transform="translate(41 27)" style="fill:#fff"/>
</svg>
