<svg width="165" height="22" viewBox="0 0 165 22" fill="none" xmlns="http://www.w3.org/2000/svg">
<path d="M59.3872 10.0833C58.7774 9.76246 58.0143 9.40801 57.1164 9.02301C57.0428 8.99246 56.957 8.94968 56.8528 8.9069C56.5709 8.7969 56.3288 8.71135 56.1112 8.62885C55.6454 8.46079 55.3053 8.33246 54.9774 8.14913C54.9559 8.14301 54.9345 8.12774 54.913 8.12163L54.8854 8.10635C54.3461 7.80996 54.0703 7.61135 54.0488 7.59607C53.7301 7.30579 53.5677 6.97274 53.5677 6.63663C53.5677 5.67107 55.0233 4.79718 56.6169 4.79718C56.7333 4.79718 56.8498 4.80329 56.9877 4.81857C57.0153 4.81857 57.0398 4.82468 57.0674 4.82774H57.0949C58.4556 4.99579 59.5619 6.02551 59.9541 6.59996C60.3525 7.18051 60.377 7.35468 60.377 7.35468H61.0543V3.66663L60.3709 3.6819C60.3709 3.6819 59.9787 4.33579 59.853 4.33579C59.7672 4.33579 59.4178 4.30829 59.044 4.18913C58.097 3.88357 57.1961 3.72468 56.3687 3.72468C54.7046 3.72468 53.0743 4.15246 52.112 4.84301C51.0854 5.58246 50.5645 6.52051 50.5645 7.6419C50.5645 8.46385 50.9138 9.24607 51.6616 10.0925C52.2499 10.7677 53.4941 11.4797 55.5688 12.3322C57.1746 13.0075 58.1369 13.4597 58.4188 13.6766C58.7957 13.9822 58.9796 14.3763 58.9796 14.8897C58.9796 15.5161 58.6578 16.1088 58.1001 16.503C57.5822 16.8727 56.8283 17.05 55.7956 17.05C54.8425 17.05 53.9262 16.775 53.062 16.2433C52.2683 15.7636 51.8607 15.0425 51.6646 14.6513L51.6156 14.5627C51.5635 14.4619 51.4716 14.2663 51.3919 14.0983C51.3766 14.0463 51.3643 13.9975 51.3398 13.973C51.3398 13.9669 51.3337 13.9577 51.3337 13.9516V13.9608C51.2816 13.8508 51.2478 13.7713 51.2478 13.7713L50.5706 13.7866V18.0583H51.2693C51.2693 18.0583 51.2999 17.9727 51.3551 17.8566C51.3612 17.8475 51.3704 17.8291 51.3766 17.82C51.4409 17.6977 51.5237 17.5572 51.6309 17.4502C51.7045 17.3922 51.7903 17.3616 51.8945 17.3616C51.9251 17.3677 51.9588 17.3708 51.9956 17.3891C52.5319 17.548 53.0498 17.6794 53.5432 17.7955C54.6403 18.0797 55.6178 18.2752 56.3441 18.2752C57.9162 18.2752 59.4485 17.7863 60.6559 17.0041C61.7898 16.2708 62.1974 15.2166 62.3414 14.4619C62.372 14.3305 62.3996 14.1838 62.4211 14.025C62.798 11.3666 59.4393 10.0925 59.4087 10.0802H59.3872V10.0833Z" fill="#808080"/>
<path d="M29.2416 4.09154V4.78821H29.5389C30.1364 4.78821 30.1364 5.04182 30.1364 5.12432C30.1364 5.32904 29.7074 6.09904 29.1129 7.16543C28.9076 7.54432 28.7268 7.87737 28.5674 8.17682C28.0648 9.10876 27.7461 9.70154 27.409 10.221C26.6981 9.09348 26.2598 8.39071 25.7205 7.51071C25.3435 6.87821 25.0585 6.45043 24.8685 6.16626C24.7429 5.97071 24.6571 5.84543 24.6142 5.76598C24.5131 5.56432 24.461 5.36571 24.461 5.17626C24.461 5.00209 24.5345 4.82793 25.4508 4.80348H25.6898V4.09154H19.3555V4.85543C19.8519 4.86154 20.2013 4.97154 20.3943 5.16709C20.6426 5.52154 20.8724 5.84848 21.0869 6.14182C21.6018 6.85987 22.0032 7.42821 22.3219 7.98126C23.5569 9.86959 24.2863 11.3668 24.6203 12.0971V16.5246C24.6203 16.8149 24.5774 16.8454 24.4885 16.9188L24.4732 16.9401C24.4456 16.9768 24.2771 17.1021 23.2168 17.1449V17.9607H29.6982V17.1326C29.0669 17.1174 28.8095 17.0746 28.6073 17.0104C28.4172 16.9463 28.3253 16.8363 28.3253 16.656V13.0443C28.3253 12.3171 28.3743 11.8099 28.4571 11.541C28.5429 11.2813 28.8493 10.5449 29.401 9.62209C29.8392 8.84598 30.1732 8.24098 30.3969 7.82543C31.8097 5.18848 32.1192 5.06932 32.1345 5.06932L32.1713 5.05404C32.2724 4.98071 32.5574 4.87987 33.3634 4.82182V4.09154H29.2416Z" fill="#808080"/>
<path d="M73.245 4.12138V4.79055H73.3247C73.4044 4.79971 73.4933 4.80582 73.5944 4.80582C74.1338 4.80582 74.9704 5.05332 75.0837 5.44443V12.8358C75.0776 15.2864 74.7804 15.6133 74.2471 16.2L74.1368 16.3222C73.6863 16.8294 72.8037 17.1014 71.6362 17.1014C70.7138 17.1014 69.9568 16.8692 69.3899 16.4169C68.9394 16.0594 68.6544 15.4636 68.5471 14.6447C68.4981 14.3667 68.4797 13.6944 68.4797 12.6586V5.4811C68.5012 5.33749 68.5441 5.2336 68.59 5.16332C68.6483 5.07777 68.8321 4.97388 69.3531 4.9586C69.4788 4.9586 69.5125 4.95249 69.5492 4.94943C69.5707 4.94943 69.5921 4.94332 69.6381 4.94027H69.7239V4.12138H63.2271V4.82721C63.7665 4.83332 64.1649 4.8761 64.4039 4.94943C64.5847 5.00138 64.6889 5.14499 64.7318 5.3711V5.41999C64.7318 5.41999 64.7379 5.45055 64.7379 5.47193V13.0528C64.7379 14.8189 65.1302 16.0747 65.9025 16.7744C66.9505 17.7278 68.3817 18.0242 70.2142 18.1769C70.5575 18.2044 70.9129 18.2197 71.2562 18.2197C72.5739 18.2197 73.8579 18.0242 74.7129 17.6758C76.3862 16.9914 77.1278 15.6989 77.1278 13.4805V5.4536C77.1554 5.18471 77.2167 5.08388 77.2718 5.02277C77.3454 4.93721 77.7008 4.83332 78.3199 4.79055C78.3781 4.79055 78.3996 4.78443 78.421 4.76916H78.4486L78.5283 4.75999V4.12138H73.242H73.2481H73.245Z" fill="#808080"/>
<path d="M91.2674 4.01515V4.69959H91.5003C91.8619 4.69959 92.2143 4.81571 92.3308 4.96848C92.3461 5.03265 92.3522 5.13654 92.3522 5.28932V12.2468L84.3232 4.11293H79.4721V4.87071L79.9287 4.91348L79.9961 4.92265C80.4742 5.11209 80.6519 5.25876 80.8113 5.46043C80.9338 5.64987 81.0074 5.85459 81.0442 6.08682C81.0503 6.12959 81.0656 6.21821 81.0717 6.41376C81.0809 6.67654 81.0932 7.06154 81.0932 7.52598V15.8768C81.084 15.9776 81.0871 16.4665 81.0871 16.4665C81.0871 16.4726 81.0871 16.6499 80.9124 16.8088L80.8634 16.8393C80.6734 16.9402 80.1524 17.0288 79.4721 17.0776V17.8049H83.9003V17.1204H83.6735C83.3119 17.1204 82.9595 17.0104 82.843 16.8576C82.8277 16.7935 82.8216 16.6896 82.8216 16.5429V7.50459L93.0387 17.8263H93.9611V5.35348C93.9611 5.35348 93.9611 5.16404 94.1419 5.01126C94.1572 5.00209 94.1725 4.98987 94.1909 4.98071C94.3564 4.89209 94.6261 4.79737 95.3248 4.74237V4.01515H91.2674Z" fill="#808080"/>
<path d="M18.3595 17.2182C17.8447 17.1815 17.4739 17.0929 17.2594 16.9432C17.0111 16.7751 16.91 16.3993 16.91 15.6476V6.10515C16.91 5.45126 16.9836 5.24043 17.1 5.10904C17.1858 5.00821 17.434 4.88293 18.1266 4.83404C18.2124 4.82793 18.286 4.82487 18.3534 4.81265V4.09154H12.1263V4.84932H12.3439C13.0702 4.84932 13.4195 5.25571 13.4195 6.08376V9.79015C11.6513 9.86348 9.43258 9.87876 7.87581 9.82682L7.39775 9.79626V5.87904C7.39775 5.51543 7.44678 5.26793 7.54178 5.13654C7.6 5.05098 7.78387 4.94709 8.30484 4.93182C8.45807 4.93182 8.58065 4.92265 8.69097 4.91654V4.09154H2.35968V4.79737C2.89597 4.80348 3.29129 4.84626 3.53645 4.91959C3.76936 4.99293 3.88581 5.20376 3.88581 5.57959V16.1396C3.88581 16.6468 3.84291 16.8821 3.74178 16.9371C3.48742 17.0746 3.02774 17.1479 2.35968 17.1571V17.9638H8.70016V17.1876C8.57758 17.1724 8.43968 17.1571 8.265 17.1388C7.7042 17.0746 7.41307 16.9065 7.39775 16.6285V11.2721H13.4256V16.2343C13.4103 16.5552 13.3981 16.6254 13.3827 16.6926V16.7232C13.3827 16.8088 13.2602 16.8974 13.0487 16.9768C12.8005 17.0715 12.5032 17.1235 12.1631 17.1357H12.1539V17.9576H18.3656V17.2151L18.3595 17.2213V17.2182Z" fill="#808080"/>
<path d="M49.0201 10.8499C48.9312 6.81661 45.1925 3.62355 40.6693 3.72133C36.1522 3.81605 32.5606 7.168 32.6525 11.2013C32.7475 15.2347 36.4862 18.4277 41.0033 18.3299C45.5204 18.2352 49.1121 14.8863 49.0171 10.8499H49.0232H49.0201ZM40.8379 16.9549C38.5395 16.9549 36.6762 14.2966 36.6762 11.0241C36.6762 7.75161 38.5395 5.09327 40.8379 5.09327C43.1362 5.09327 44.9995 7.75161 44.9995 11.0241C44.9995 14.2966 43.1362 16.9549 40.8379 16.9549Z" fill="#808080"/>
<path d="M105.34 11.5474V12.2472C105.879 12.2472 106.284 12.2899 106.532 12.3633C106.707 12.4152 106.771 12.5099 106.844 12.8124C106.86 13.066 106.875 13.3502 106.887 13.6405V13.8788H106.894C106.906 14.2699 106.909 14.658 106.909 14.9972C106.909 16.1674 106.063 16.6013 105.542 16.7541C105.484 16.7816 105.236 16.8213 105.236 16.8213C105.184 16.8274 105.018 16.8366 104.997 16.8427C104.929 16.8488 104.497 16.8274 104.46 16.8213C104.001 16.7908 103.639 16.7358 103.28 16.5799C102.904 16.421 102.591 16.2255 102.352 15.9994C101.114 14.9727 100.28 13.0569 100.28 10.8691C100.28 8.08548 101.626 5.7541 103.437 5.11243C103.605 5.05437 104.019 4.9016 104.577 4.81298C104.65 4.79771 104.724 4.79771 104.8 4.78548C106.489 4.61132 107.549 5.13382 108.147 5.60132C108.159 5.61048 108.174 5.62271 108.184 5.63187C108.193 5.63798 108.205 5.64104 108.227 5.66854L108.248 5.68382C108.839 6.20021 109.149 6.99771 109.238 7.34298C109.333 7.69132 109.364 7.82271 109.364 7.82271H109.707C109.771 7.8441 109.839 7.83798 109.903 7.83187H110.225V3.76187H109.468V3.77715C109.367 3.80771 109.131 4.19271 109.131 4.19271C109.131 4.19271 108.987 4.4341 108.855 4.4341C108.732 4.4341 108.518 4.38215 108.214 4.28743C108.104 4.25076 107.997 4.22021 107.886 4.19271L107.819 4.17743C106.838 3.84437 105.891 3.67021 104.997 3.67021C102.459 3.67021 100.057 4.42798 98.5672 5.71132C96.9829 7.06493 96.18 8.79132 96.18 10.8294C96.18 12.8674 97.0748 14.9513 98.509 16.1552C99.9616 17.3744 102.291 18.0955 104.739 18.0955C106.529 18.0955 108.542 17.5424 110.396 16.5341L110.445 16.5066V15.1927C110.445 14.8566 110.445 14.3647 110.451 13.891V13.7322C110.451 13.4908 110.464 13.2585 110.464 13.063C110.485 12.843 110.528 12.678 110.602 12.5894C110.666 12.5038 110.85 12.406 111.38 12.3877C111.533 12.3877 111.662 12.3785 111.772 12.3724V11.5566H105.343V11.5474H105.34Z" fill="#808080"/>
<path d="M163.754 14.7958C163.754 14.8198 163.742 14.9878 163.718 15.2998H158.834C158.922 15.6998 159.13 16.0158 159.458 16.2478C159.786 16.4798 160.194 16.5958 160.682 16.5958C161.018 16.5958 161.314 16.5478 161.57 16.4518C161.834 16.3478 162.078 16.1878 162.302 15.9718L163.298 17.0518C162.69 17.7478 161.802 18.0958 160.634 18.0958C159.906 18.0958 159.262 17.9558 158.702 17.6758C158.142 17.3878 157.71 16.9918 157.406 16.4878C157.102 15.9838 156.95 15.4118 156.95 14.7718C156.95 14.1398 157.098 13.5718 157.394 13.0678C157.698 12.5558 158.11 12.1598 158.63 11.8798C159.158 11.5918 159.746 11.4478 160.394 11.4478C161.026 11.4478 161.598 11.5838 162.11 11.8558C162.622 12.1278 163.022 12.5198 163.31 13.0318C163.606 13.5358 163.754 14.1238 163.754 14.7958ZM160.406 12.8638C159.982 12.8638 159.626 12.9838 159.338 13.2238C159.05 13.4638 158.874 13.7918 158.81 14.2078H161.99C161.926 13.7998 161.75 13.4758 161.462 13.2358C161.174 12.9878 160.822 12.8638 160.406 12.8638Z" fill="#808080"/>
<path d="M152.961 11.4478C153.561 11.4478 154.105 11.5878 154.593 11.8678C155.089 12.1398 155.477 12.5278 155.757 13.0318C156.037 13.5278 156.177 14.1078 156.177 14.7718C156.177 15.4358 156.037 16.0198 155.757 16.5238C155.477 17.0198 155.089 17.4078 154.593 17.6878C154.105 17.9598 153.561 18.0958 152.961 18.0958C152.073 18.0958 151.397 17.8158 150.933 17.2558V17.9998H149.145V9.09577H151.017V12.2278C151.489 11.7078 152.137 11.4478 152.961 11.4478ZM152.637 16.5598C153.117 16.5598 153.509 16.3998 153.813 16.0798C154.125 15.7518 154.281 15.3158 154.281 14.7718C154.281 14.2278 154.125 13.7958 153.813 13.4758C153.509 13.1478 153.117 12.9838 152.637 12.9838C152.157 12.9838 151.761 13.1478 151.449 13.4758C151.145 13.7958 150.993 14.2278 150.993 14.7718C150.993 15.3158 151.145 15.7518 151.449 16.0798C151.761 16.3998 152.157 16.5598 152.637 16.5598Z" fill="#808080"/>
<path d="M147.553 11.544V18H145.777V17.232C145.529 17.512 145.233 17.728 144.889 17.88C144.545 18.024 144.173 18.096 143.773 18.096C142.925 18.096 142.253 17.852 141.757 17.364C141.261 16.876 141.013 16.152 141.013 15.192V11.544H142.885V14.916C142.885 15.956 143.321 16.476 144.193 16.476C144.641 16.476 145.001 16.332 145.273 16.044C145.545 15.748 145.681 15.312 145.681 14.736V11.544H147.553Z" fill="#808080"/>
<path d="M136.422 18.1438C135.566 18.1438 134.79 17.9598 134.094 17.5918C133.406 17.2158 132.862 16.6998 132.462 16.0438C132.07 15.3798 131.874 14.6318 131.874 13.7998C131.874 12.9678 132.07 12.2238 132.462 11.5678C132.862 10.9038 133.406 10.3878 134.094 10.0198C134.79 9.64377 135.57 9.45577 136.434 9.45577C137.162 9.45577 137.818 9.58377 138.402 9.83977C138.994 10.0958 139.49 10.4638 139.89 10.9438L138.642 12.0958C138.074 11.4398 137.37 11.1118 136.53 11.1118C136.01 11.1118 135.546 11.2278 135.138 11.4598C134.73 11.6838 134.41 11.9998 134.178 12.4078C133.954 12.8158 133.842 13.2798 133.842 13.7998C133.842 14.3198 133.954 14.7838 134.178 15.1918C134.41 15.5998 134.73 15.9198 135.138 16.1518C135.546 16.3758 136.01 16.4878 136.53 16.4878C137.37 16.4878 138.074 16.1558 138.642 15.4918L139.89 16.6438C139.49 17.1318 138.994 17.5038 138.402 17.7598C137.81 18.0158 137.15 18.1438 136.422 18.1438Z" fill="#808080"/>
<path d="M127.354 13.8718H130.75V15.3718H127.354V13.8718Z" fill="#808080"/>
<path d="M123.016 18.1438C122.16 18.1438 121.384 17.9598 120.688 17.5918C120 17.2158 119.456 16.6998 119.056 16.0438C118.664 15.3798 118.468 14.6318 118.468 13.7998C118.468 12.9678 118.664 12.2238 119.056 11.5678C119.456 10.9038 120 10.3878 120.688 10.0198C121.384 9.64377 122.164 9.45577 123.028 9.45577C123.756 9.45577 124.412 9.58377 124.996 9.83977C125.588 10.0958 126.084 10.4638 126.484 10.9438L125.236 12.0958C124.668 11.4398 123.964 11.1118 123.124 11.1118C122.604 11.1118 122.14 11.2278 121.732 11.4598C121.324 11.6838 121.004 11.9998 120.772 12.4078C120.548 12.8158 120.436 13.2798 120.436 13.7998C120.436 14.3198 120.548 14.7838 120.772 15.1918C121.004 15.5998 121.324 15.9198 121.732 16.1518C122.14 16.3758 122.604 16.4878 123.124 16.4878C123.964 16.4878 124.668 16.1558 125.236 15.4918L126.484 16.6438C126.084 17.1318 125.588 17.5038 124.996 17.7598C124.404 18.0158 123.744 18.1438 123.016 18.1438Z" fill="#808080"/>
</svg>
