<svg width="32" height="18" viewBox="0 0 32 18" fill="none" xmlns="http://www.w3.org/2000/svg">
<rect width="32" height="18" rx="6" fill="url(#paint0_linear_2868_2644)"/>
<rect x="0.5" y="0.5" width="31" height="17" rx="5.5" stroke="#E67700" stroke-opacity="0.2"/>
<g filter="url(#filter0_d_2868_2644)">
<path d="M24.2111 11.3202C24.4299 11.3202 24.608 11.2925 24.7452 11.2369C24.8856 11.1814 24.9951 11.1095 25.0735 11.0213C25.1519 10.9331 25.2058 10.8335 25.2352 10.7224C25.2646 10.6114 25.2793 10.4987 25.2793 10.3843C25.2793 10.2537 25.2613 10.1361 25.2254 10.0315C25.1927 9.92699 25.1339 9.83879 25.049 9.76692C24.9673 9.69505 24.8579 9.63952 24.7207 9.60032C24.5835 9.56112 24.4103 9.54152 24.2013 9.54152H23.0449V11.3202H24.2111ZM23.0449 6.67012V8.43412H23.9073C24.0902 8.43412 24.2552 8.42105 24.4022 8.39492C24.5492 8.36879 24.6733 8.32305 24.7746 8.25772C24.8791 8.19239 24.9575 8.10255 25.0098 7.98822C25.0653 7.87389 25.0931 7.73015 25.0931 7.55702C25.0931 7.38715 25.0718 7.24669 25.0294 7.13562C24.9869 7.02129 24.9216 6.92982 24.8334 6.86122C24.7452 6.79262 24.6325 6.74362 24.4953 6.71422C24.3613 6.68482 24.2013 6.67012 24.0151 6.67012H23.0449ZM24.0151 5.43042C24.5083 5.43042 24.9281 5.47615 25.2744 5.56762C25.6206 5.65909 25.9032 5.78812 26.1221 5.95472C26.3409 6.12132 26.4994 6.32385 26.5974 6.56232C26.6986 6.80079 26.7493 7.06702 26.7493 7.36102C26.7493 7.52109 26.7264 7.67625 26.6807 7.82652C26.6349 7.97352 26.5631 8.11235 26.4651 8.24302C26.3671 8.37042 26.2413 8.48802 26.0878 8.59582C25.9342 8.70362 25.7497 8.79672 25.5341 8.87512C26.0045 8.98945 26.3524 9.17402 26.5778 9.42882C26.8032 9.68362 26.9159 10.0136 26.9159 10.4186C26.9159 10.7224 26.8571 11.005 26.7395 11.2663C26.6219 11.5277 26.4487 11.7563 26.2201 11.9523C25.9947 12.1451 25.7154 12.297 25.3822 12.408C25.049 12.5158 24.6684 12.5697 24.2405 12.5697H21.3887V5.43042H24.0151Z" fill="#BD6508"/>
<path d="M24.2111 11.3202C24.4299 11.3202 24.608 11.2925 24.7452 11.2369C24.8856 11.1814 24.9951 11.1095 25.0735 11.0213C25.1519 10.9331 25.2058 10.8335 25.2352 10.7224C25.2646 10.6114 25.2793 10.4987 25.2793 10.3843C25.2793 10.2537 25.2613 10.1361 25.2254 10.0315C25.1927 9.92699 25.1339 9.83879 25.049 9.76692C24.9673 9.69505 24.8579 9.63952 24.7207 9.60032C24.5835 9.56112 24.4103 9.54152 24.2013 9.54152H23.0449V11.3202H24.2111ZM23.0449 6.67012V8.43412H23.9073C24.0902 8.43412 24.2552 8.42105 24.4022 8.39492C24.5492 8.36879 24.6733 8.32305 24.7746 8.25772C24.8791 8.19239 24.9575 8.10255 25.0098 7.98822C25.0653 7.87389 25.0931 7.73015 25.0931 7.55702C25.0931 7.38715 25.0718 7.24669 25.0294 7.13562C24.9869 7.02129 24.9216 6.92982 24.8334 6.86122C24.7452 6.79262 24.6325 6.74362 24.4953 6.71422C24.3613 6.68482 24.2013 6.67012 24.0151 6.67012H23.0449ZM24.0151 5.43042C24.5083 5.43042 24.9281 5.47615 25.2744 5.56762C25.6206 5.65909 25.9032 5.78812 26.1221 5.95472C26.3409 6.12132 26.4994 6.32385 26.5974 6.56232C26.6986 6.80079 26.7493 7.06702 26.7493 7.36102C26.7493 7.52109 26.7264 7.67625 26.6807 7.82652C26.6349 7.97352 26.5631 8.11235 26.4651 8.24302C26.3671 8.37042 26.2413 8.48802 26.0878 8.59582C25.9342 8.70362 25.7497 8.79672 25.5341 8.87512C26.0045 8.98945 26.3524 9.17402 26.5778 9.42882C26.8032 9.68362 26.9159 10.0136 26.9159 10.4186C26.9159 10.7224 26.8571 11.005 26.7395 11.2663C26.6219 11.5277 26.4487 11.7563 26.2201 11.9523C25.9947 12.1451 25.7154 12.297 25.3822 12.408C25.049 12.5158 24.6684 12.5697 24.2405 12.5697H21.3887V5.43042H24.0151Z" fill="url(#paint1_linear_2868_2644)" fill-opacity="0.2" style="mix-blend-mode:plus-darker"/>
</g>
<g filter="url(#filter1_d_2868_2644)">
<path d="M17.6504 6.70442V8.37042H19.8946V9.59542H17.6504V11.2957H20.5806V12.5697H15.9844V5.43042H20.5806V6.70442H17.6504Z" fill="#BD6508"/>
<path d="M17.6504 6.70442V8.37042H19.8946V9.59542H17.6504V11.2957H20.5806V12.5697H15.9844V5.43042H20.5806V6.70442H17.6504Z" fill="url(#paint2_linear_2868_2644)" fill-opacity="0.2" style="mix-blend-mode:plus-darker"/>
</g>
<g filter="url(#filter2_d_2868_2644)">
<path d="M15.4017 5.43042L13.1967 12.5697H11.6973L10.3547 8.14502C10.3286 8.07642 10.3041 8.00129 10.2812 7.91962C10.2583 7.83469 10.2355 7.74649 10.2126 7.65502C10.1897 7.74649 10.1669 7.83469 10.144 7.91962C10.1211 8.00129 10.0966 8.07642 10.0705 8.14502L8.70831 12.5697H7.20891L5.00391 5.43042H6.39551C6.53924 5.43042 6.65847 5.46309 6.75321 5.52842C6.85121 5.59375 6.91491 5.68032 6.94431 5.78812L7.92431 9.51212C7.95371 9.62972 7.98311 9.75875 8.01251 9.89922C8.04191 10.0364 8.07131 10.1802 8.10071 10.3304C8.15951 10.0234 8.23137 9.75059 8.31631 9.51212L9.47271 5.78812C9.50211 5.69665 9.56417 5.61499 9.65891 5.54312C9.75691 5.46799 9.87451 5.43042 10.0117 5.43042H10.5017C10.6454 5.43042 10.7614 5.46472 10.8496 5.53332C10.9378 5.59865 11.0048 5.68359 11.0505 5.78812L12.1971 9.51212C12.282 9.74079 12.3539 10.0005 12.4127 10.2912C12.4388 10.1442 12.465 10.007 12.4911 9.87962C12.5205 9.74895 12.5499 9.62645 12.5793 9.51212L13.5593 5.78812C13.5854 5.69339 13.6475 5.61009 13.7455 5.53822C13.8435 5.46635 13.9611 5.43042 14.0983 5.43042H15.4017Z" fill="#BD6508"/>
<path d="M15.4017 5.43042L13.1967 12.5697H11.6973L10.3547 8.14502C10.3286 8.07642 10.3041 8.00129 10.2812 7.91962C10.2583 7.83469 10.2355 7.74649 10.2126 7.65502C10.1897 7.74649 10.1669 7.83469 10.144 7.91962C10.1211 8.00129 10.0966 8.07642 10.0705 8.14502L8.70831 12.5697H7.20891L5.00391 5.43042H6.39551C6.53924 5.43042 6.65847 5.46309 6.75321 5.52842C6.85121 5.59375 6.91491 5.68032 6.94431 5.78812L7.92431 9.51212C7.95371 9.62972 7.98311 9.75875 8.01251 9.89922C8.04191 10.0364 8.07131 10.1802 8.10071 10.3304C8.15951 10.0234 8.23137 9.75059 8.31631 9.51212L9.47271 5.78812C9.50211 5.69665 9.56417 5.61499 9.65891 5.54312C9.75691 5.46799 9.87451 5.43042 10.0117 5.43042H10.5017C10.6454 5.43042 10.7614 5.46472 10.8496 5.53332C10.9378 5.59865 11.0048 5.68359 11.0505 5.78812L12.1971 9.51212C12.282 9.74079 12.3539 10.0005 12.4127 10.2912C12.4388 10.1442 12.465 10.007 12.4911 9.87962C12.5205 9.74895 12.5499 9.62645 12.5793 9.51212L13.5593 5.78812C13.5854 5.69339 13.6475 5.61009 13.7455 5.53822C13.8435 5.46635 13.9611 5.43042 14.0983 5.43042H15.4017Z" fill="url(#paint3_linear_2868_2644)" fill-opacity="0.2" style="mix-blend-mode:plus-darker"/>
</g>
<defs>
<filter id="filter0_d_2868_2644" x="20.3887" y="5.43042" width="7.52734" height="9.1394" filterUnits="userSpaceOnUse" color-interpolation-filters="sRGB">
<feFlood flood-opacity="0" result="BackgroundImageFix"/>
<feColorMatrix in="SourceAlpha" type="matrix" values="0 0 0 0 0 0 0 0 0 0 0 0 0 0 0 0 0 0 127 0" result="hardAlpha"/>
<feOffset dy="1"/>
<feGaussianBlur stdDeviation="0.5"/>
<feComposite in2="hardAlpha" operator="out"/>
<feColorMatrix type="matrix" values="0 0 0 0 1 0 0 0 0 1 0 0 0 0 1 0 0 0 0.6 0"/>
<feBlend mode="normal" in2="BackgroundImageFix" result="effect1_dropShadow_2868_2644"/>
<feBlend mode="normal" in="SourceGraphic" in2="effect1_dropShadow_2868_2644" result="shape"/>
</filter>
<filter id="filter1_d_2868_2644" x="14.9844" y="5.43042" width="6.5957" height="9.1394" filterUnits="userSpaceOnUse" color-interpolation-filters="sRGB">
<feFlood flood-opacity="0" result="BackgroundImageFix"/>
<feColorMatrix in="SourceAlpha" type="matrix" values="0 0 0 0 0 0 0 0 0 0 0 0 0 0 0 0 0 0 127 0" result="hardAlpha"/>
<feOffset dy="1"/>
<feGaussianBlur stdDeviation="0.5"/>
<feComposite in2="hardAlpha" operator="out"/>
<feColorMatrix type="matrix" values="0 0 0 0 1 0 0 0 0 1 0 0 0 0 1 0 0 0 0.6 0"/>
<feBlend mode="normal" in2="BackgroundImageFix" result="effect1_dropShadow_2868_2644"/>
<feBlend mode="normal" in="SourceGraphic" in2="effect1_dropShadow_2868_2644" result="shape"/>
</filter>
<filter id="filter2_d_2868_2644" x="4.00391" y="5.43042" width="12.3984" height="9.1394" filterUnits="userSpaceOnUse" color-interpolation-filters="sRGB">
<feFlood flood-opacity="0" result="BackgroundImageFix"/>
<feColorMatrix in="SourceAlpha" type="matrix" values="0 0 0 0 0 0 0 0 0 0 0 0 0 0 0 0 0 0 127 0" result="hardAlpha"/>
<feOffset dy="1"/>
<feGaussianBlur stdDeviation="0.5"/>
<feComposite in2="hardAlpha" operator="out"/>
<feColorMatrix type="matrix" values="0 0 0 0 1 0 0 0 0 1 0 0 0 0 1 0 0 0 0.6 0"/>
<feBlend mode="normal" in2="BackgroundImageFix" result="effect1_dropShadow_2868_2644"/>
<feBlend mode="normal" in="SourceGraphic" in2="effect1_dropShadow_2868_2644" result="shape"/>
</filter>
<linearGradient id="paint0_linear_2868_2644" x1="16" y1="0" x2="16" y2="18" gradientUnits="userSpaceOnUse">
<stop stop-color="#FFF4DF"/>
<stop offset="1" stop-color="#FFCC65"/>
</linearGradient>
<linearGradient id="paint1_linear_2868_2644" x1="16.2449" y1="1.56972" x2="16.2449" y2="15.5697" gradientUnits="userSpaceOnUse">
<stop stop-color="#1A1A1A"/>
<stop offset="1" stop-color="#1A1A1A" stop-opacity="0"/>
</linearGradient>
<linearGradient id="paint2_linear_2868_2644" x1="16.1644" y1="1.56972" x2="16.1644" y2="15.5697" gradientUnits="userSpaceOnUse">
<stop stop-color="#1A1A1A"/>
<stop offset="1" stop-color="#1A1A1A" stop-opacity="0"/>
</linearGradient>
<linearGradient id="paint3_linear_2868_2644" x1="16.0024" y1="1.56972" x2="16.0024" y2="15.5697" gradientUnits="userSpaceOnUse">
<stop stop-color="#1A1A1A"/>
<stop offset="1" stop-color="#1A1A1A" stop-opacity="0"/>
</linearGradient>
</defs>
</svg>
