<svg xmlns="http://www.w3.org/2000/svg" id="prefix__ico_lock" width="20" height="20" viewBox="0 0 20 20">
    <path id="prefix___ico_area" d="M0 0h20v20H0z" data-name="* ico area" style="fill:none"/>
    <path id="prefix__ico" d="M11809 19588h-12a1 1 0 0 1-1-1v-7a1 1 0 0 1 1-1h2v-4a4 4 0 0 1 8 0v4h2a1 1 0 0 1 1 1v7a1 1 0 0 1-1 1zm-6-7a1.5 1.5 0 0 0-.5 2.92v1.582a.5.5 0 1 0 1 0v-1.582a1.5 1.5 0 0 0-.5-2.92zm0-8.5a2.508 2.508 0 0 0-2.5 2.508v4h5v-4a2.5 2.5 0 0 0-2.5-2.508z" transform="translate(-11793 -19570.002)" style="fill:#236cff"/>
</svg>
