<svg xmlns="http://www.w3.org/2000/svg" id="prefix__ico_star" width="16" height="16" viewBox="0 0 16 16">
    <path id="prefix___ico_area" d="M0 0H16V16H0z" data-name="* ico area" style="fill:none"/>
    <path id="prefix__ico" d="M12.017 6.273l1.638 3.318a.375.375 0 0 0 .282.205l3.662.532a.376.376 0 0 1 .208.641l-2.649 2.582a.377.377 0 0 0-.108.333l.625 3.647a.375.375 0 0 1-.544.4L11.856 16.2a.377.377 0 0 0-.35 0l-3.275 1.727a.375.375 0 0 1-.544-.4l.625-3.647a.377.377 0 0 0-.108-.333l-2.65-2.578a.376.376 0 0 1 .208-.641L9.424 9.8a.375.375 0 0 0 .282-.205l1.638-3.318a.376.376 0 0 1 .673-.004z" transform="translate(-3.44 -4.064)" style="fill:#367de4"/>
</svg>
