<svg width="16" height="16" viewBox="0 0 16 16" fill="none" xmlns="http://www.w3.org/2000/svg">
<path fill-rule="evenodd" clip-rule="evenodd" d="M10.0003 4.33497C10.0005 5.24773 9.68695 6.13281 9.1123 6.84197H9.1133C9.39826 6.94335 9.69789 6.9974 10.0003 7.00197C11.4732 7.00197 12.6673 5.80791 12.6673 4.33497C12.6676 3.62756 12.3867 2.94904 11.8865 2.44882C11.3862 1.94861 10.7077 1.6677 10.0003 1.66797C9.6975 1.67277 9.39752 1.72716 9.1123 1.82897C9.68695 2.53774 10.0005 3.42252 10.0003 4.33497ZM12.6673 10.335V14.335H15.3313V10.335C15.3313 8.88097 12.9533 8.02197 11.1133 7.75597C12.042 8.28945 12.6296 9.26457 12.6673 10.335Z" fill="#4E89FD"/>
<path fill-rule="evenodd" clip-rule="evenodd" d="M6.00099 1.66797C4.52805 1.66797 3.33399 2.86203 3.33399 4.33497C3.33373 5.04221 3.61549 5.72057 4.11549 6.22076C4.61549 6.72095 5.29375 7.00197 6.00099 7.00197C6.70797 7.0017 7.38587 6.72054 7.88549 6.22035C8.38512 5.72016 8.66552 5.04194 8.66499 4.33497C8.66552 3.62799 8.38512 2.94978 7.88549 2.44959C7.38587 1.9494 6.70797 1.66823 6.00099 1.66797ZM0.666992 10.335V14.335H11.332V10.335C11.332 8.56297 7.77599 7.66797 5.99799 7.66797C4.21999 7.66797 0.666992 8.56297 0.666992 10.335Z" fill="#273ED3"/>
</svg>
