<svg xmlns="http://www.w3.org/2000/svg" width="16" height="16" viewBox="0 0 16 16">
    <path data-name="Rectangle 1276" style="fill:none" d="M0 0h16v16H0z"/>
    <path data-name="Path 736" d="M-9857 11640.667v-4a3.1 3.1 0 0 0-1.554-2.579c1.84.266 4.218 1.125 4.218 2.579v4zm-3.555-7.493a3.981 3.981 0 0 0 .888-2.507 3.978 3.978 0 0 0-.888-2.506 2.772 2.772 0 0 1 .888-.161 2.666 2.666 0 0 1 2.667 2.667 2.667 2.667 0 0 1-2.667 2.667 2.771 2.771 0 0 1-.887-.16z" transform="translate(9869.667 -11626.332)" style="fill:#2bc6a7"/>
    <path data-name="Path 737" d="M-9869 11640.667v-4c0-1.772 3.553-2.667 5.331-2.667s5.334.895 5.334 2.667v4zm2.667-10a2.667 2.667 0 0 1 2.667-2.667 2.665 2.665 0 0 1 2.664 2.667 2.665 2.665 0 0 1-2.664 2.667 2.666 2.666 0 0 1-2.666-2.667z" transform="translate(9869.667 -11626.332)" style="fill:#0f9177"/>
</svg>
