<svg width="270" height="36" viewBox="0 0 270 36" fill="none" xmlns="http://www.w3.org/2000/svg">
<path d="M97.1791 16.5C96.1812 15.975 94.9325 15.395 93.4632 14.765C93.3429 14.715 93.2025 14.645 93.032 14.575C92.5706 14.395 92.1745 14.255 91.8184 14.12C91.0562 13.845 90.4996 13.635 89.963 13.335C89.9279 13.325 89.8928 13.3 89.8577 13.29L89.8125 13.265C88.93 12.78 88.4786 12.455 88.4435 12.43C87.922 11.955 87.6562 11.41 87.6562 10.86C87.6562 9.28 90.0382 7.85 92.6458 7.85C92.8364 7.85 93.0269 7.86 93.2526 7.885C93.2977 7.885 93.3379 7.895 93.383 7.9H93.4281C95.6546 8.175 97.4649 9.86 98.1068 10.8C98.7587 11.75 98.7988 12.035 98.7988 12.035H99.9071V6L98.7888 6.025C98.7888 6.025 98.1469 7.095 97.9413 7.095C97.8009 7.095 97.2292 7.05 96.6174 6.855C95.0679 6.355 93.5936 6.095 92.2397 6.095C89.5167 6.095 86.8489 6.795 85.2743 7.925C83.5944 9.135 82.7419 10.67 82.7419 12.505C82.7419 13.85 83.3135 15.13 84.5371 16.515C85.4999 17.62 87.5359 18.785 90.9308 20.18C93.5585 21.285 95.1331 22.025 95.5945 22.38C96.2113 22.88 96.5121 23.525 96.5121 24.365C96.5121 25.39 95.9856 26.36 95.0729 27.005C94.2255 27.61 92.9918 27.9 91.3019 27.9C89.7423 27.9 88.243 27.45 86.8288 26.58C85.53 25.795 84.8631 24.615 84.5421 23.975L84.4619 23.83C84.3766 23.665 84.2262 23.345 84.0958 23.07C84.0708 22.985 84.0507 22.905 84.0106 22.865C84.0106 22.855 84.0006 22.84 84.0006 22.83V22.845C83.9153 22.665 83.8601 22.535 83.8601 22.535L82.7519 22.56V29.55H83.8952C83.8952 29.55 83.9454 29.41 84.0357 29.22C84.0457 29.205 84.0607 29.175 84.0708 29.16C84.1761 28.96 84.3115 28.73 84.487 28.555C84.6073 28.46 84.7477 28.41 84.9182 28.41C84.9684 28.42 85.0236 28.425 85.0837 28.455C85.9613 28.715 86.8088 28.93 87.6161 29.12C89.4114 29.585 91.0111 29.905 92.1995 29.905C94.7721 29.905 97.2794 29.105 99.2552 27.825C101.111 26.625 101.778 24.9 102.013 23.665C102.063 23.45 102.109 23.21 102.144 22.95C102.76 18.6 97.2643 16.515 97.2142 16.495H97.1791V16.5Z" fill="#270089"/>
<path d="M47.8499 6.69531V7.83531H48.3364C49.3142 7.83531 49.3142 8.25031 49.3142 8.38531C49.3142 8.72031 48.6122 9.98031 47.6393 11.7253C47.3033 12.3453 47.0075 12.8903 46.7467 13.3803C45.9243 14.9053 45.4028 15.8753 44.8512 16.7253C43.6878 14.8803 42.9707 13.7303 42.0881 12.2903C41.4713 11.2553 41.0049 10.5553 40.694 10.0903C40.4884 9.77031 40.348 9.56531 40.2778 9.43531C40.1123 9.10531 40.0271 8.78031 40.0271 8.47031C40.0271 8.18531 40.1474 7.90031 41.6468 7.86031H42.0379V6.69531H31.6726V7.94531C32.485 7.95531 33.0567 8.13531 33.3726 8.45531C33.7788 9.03531 34.1549 9.57031 34.5059 10.0503C35.3484 11.2253 36.0053 12.1553 36.5268 13.0603C38.5477 16.1503 39.7412 18.6003 40.2878 19.7953V27.0403C40.2878 27.5153 40.2176 27.5653 40.0722 27.6853L40.0471 27.7203C40.002 27.7803 39.7262 27.9853 37.9911 28.0553V29.3903H48.5971V28.0353C47.5641 28.0103 47.1429 27.9403 46.8119 27.8353C46.501 27.7303 46.3505 27.5503 46.3505 27.2553V21.3453C46.3505 20.1553 46.4308 19.3253 46.5662 18.8853C46.7066 18.4603 47.2081 17.2553 48.1107 15.7453C48.8278 14.4753 49.3744 13.4853 49.7405 12.8053C52.0522 8.49031 52.5587 8.29531 52.5838 8.29531L52.6439 8.27031C52.8094 8.15031 53.2758 7.98531 54.5947 7.89031V6.69531H47.8499Z" fill="#270089"/>
<path d="M119.856 6.74414V7.83914H119.986C120.116 7.85414 120.262 7.86414 120.427 7.86414C121.31 7.86414 122.679 8.26914 122.864 8.90914V21.0041C122.854 25.0141 122.368 25.5491 121.495 26.5091L121.315 26.7091C120.578 27.5391 119.133 27.9841 117.223 27.9841C115.713 27.9841 114.475 27.6041 113.547 26.8641C112.81 26.2791 112.344 25.3041 112.168 23.9641C112.088 23.5091 112.058 22.4091 112.058 20.7141V8.96914C112.093 8.73414 112.163 8.56414 112.238 8.44914C112.334 8.30914 112.634 8.13914 113.487 8.11414C113.693 8.11414 113.748 8.10414 113.808 8.09914C113.843 8.09914 113.878 8.08914 113.953 8.08414H114.094V6.74414H103.463V7.89914C104.345 7.90914 104.997 7.97914 105.388 8.09914C105.684 8.18414 105.855 8.41914 105.925 8.78914V8.86914C105.925 8.86914 105.935 8.91914 105.935 8.95414V21.3591C105.935 24.2491 106.577 26.3041 107.84 27.4491C109.555 29.0091 111.897 29.4941 114.896 29.7441C115.458 29.7891 116.039 29.8141 116.601 29.8141C118.757 29.8141 120.858 29.4941 122.258 28.9241C124.996 27.8041 126.209 25.6891 126.209 22.0591V8.92414C126.254 8.48414 126.355 8.31914 126.445 8.21914C126.565 8.07914 127.147 7.90914 128.16 7.83914C128.255 7.83914 128.29 7.82914 128.325 7.80414H128.37L128.501 7.78914V6.74414H119.851H119.861H119.856Z" fill="#270089"/>
<path d="M149.347 6.57031V7.69031H149.728C150.32 7.69031 150.896 7.88031 151.087 8.13031C151.112 8.23531 151.122 8.40531 151.122 8.65531V20.0403L137.983 6.73031H130.045V7.97031L130.792 8.04031L130.903 8.05531C131.685 8.36531 131.976 8.60531 132.237 8.93531C132.437 9.24531 132.558 9.58031 132.618 9.96031C132.628 10.0303 132.653 10.1753 132.663 10.4953C132.678 10.9253 132.698 11.5553 132.698 12.3153V25.9803C132.683 26.1453 132.688 26.9453 132.688 26.9453C132.688 26.9553 132.688 27.2453 132.402 27.5053L132.322 27.5553C132.011 27.7203 131.158 27.8653 130.045 27.9453V29.1353H137.291V28.0153H136.92C136.329 28.0153 135.752 27.8353 135.561 27.5853C135.536 27.4803 135.526 27.3103 135.526 27.0703V12.2803L152.245 29.1703H153.755V8.76031C153.755 8.76031 153.755 8.45031 154.05 8.20031C154.075 8.18531 154.101 8.16531 154.131 8.15031C154.401 8.00531 154.843 7.85031 155.986 7.76031V6.57031H149.347Z" fill="#270089"/>
<path d="M30.0429 28.1753C29.2004 28.1153 28.5936 27.9703 28.2426 27.7253C27.8364 27.4503 27.6709 26.8353 27.6709 25.6053V9.99031C27.6709 8.92031 27.7913 8.57531 27.9819 8.36031C28.1223 8.19531 28.5285 7.99031 29.6618 7.91031C29.8022 7.90031 29.9225 7.89531 30.0329 7.87531V6.69531H19.8431V7.93531H20.1991C21.3876 7.93531 21.9592 8.60031 21.9592 9.95531V16.0203C19.0658 16.1403 15.4352 16.1653 12.8877 16.0803L12.1054 16.0303V9.62031C12.1054 9.02531 12.1857 8.62031 12.3411 8.40531C12.4364 8.26531 12.7373 8.09531 13.5898 8.07031C13.8405 8.07031 14.0411 8.05531 14.2216 8.04531V6.69531H3.86133V7.85031C4.73889 7.86031 5.38579 7.93031 5.78696 8.05031C6.16807 8.17031 6.35863 8.51531 6.35863 9.13031V26.4103C6.35863 27.2403 6.28842 27.6253 6.12294 27.7153C5.70672 27.9403 4.95452 28.0603 3.86133 28.0753V29.3953H14.2367V28.1253C14.0361 28.1003 13.8104 28.0753 13.5246 28.0453C12.6069 27.9403 12.1305 27.6653 12.1054 27.2103V18.4453H21.9693V26.5653C21.9442 27.0903 21.9241 27.2053 21.8991 27.3153V27.3653C21.8991 27.5053 21.6985 27.6503 21.3525 27.7803C20.9463 27.9353 20.4599 28.0203 19.9032 28.0403H19.8882V29.3853H30.0529V28.1703L30.0429 28.1803V28.1753Z" fill="#270089"/>
<path d="M80.2148 17.7545C80.0693 11.1545 73.9515 5.92952 66.5498 6.08952C59.1582 6.24452 53.281 11.7295 53.4314 18.3295C53.5869 24.9295 59.7048 30.1545 67.0964 29.9945C74.488 29.8395 80.3652 24.3595 80.2098 17.7545H80.2198H80.2148ZM66.8256 27.7445C63.0646 27.7445 60.0157 23.3945 60.0157 18.0395C60.0157 12.6845 63.0646 8.33452 66.8256 8.33452C70.5866 8.33452 73.6355 12.6845 73.6355 18.0395C73.6355 23.3945 70.5866 27.7445 66.8256 27.7445Z" fill="#270089"/>
<path d="M172.374 18.8959V20.0409C173.257 20.0409 173.919 20.1109 174.325 20.2309C174.611 20.3159 174.716 20.4709 174.836 20.9659C174.862 21.3809 174.887 21.8459 174.907 22.3209V22.7109H174.917C174.937 23.3509 174.942 23.9859 174.942 24.5409C174.942 26.4559 173.558 27.1659 172.705 27.4159C172.61 27.4609 172.204 27.5259 172.204 27.5259C172.119 27.5359 171.848 27.5509 171.813 27.5609C171.702 27.5709 170.995 27.5359 170.935 27.5259C170.183 27.4759 169.591 27.3859 169.004 27.1309C168.388 26.8709 167.876 26.5509 167.485 26.1809C165.459 24.5009 164.095 21.3659 164.095 17.7859C164.095 13.2309 166.296 9.41586 169.26 8.36586C169.536 8.27086 170.213 8.02086 171.126 7.87586C171.246 7.85086 171.366 7.85086 171.492 7.83086C174.255 7.54586 175.99 8.40086 176.968 9.16586C176.988 9.18086 177.013 9.20086 177.028 9.21586C177.043 9.22586 177.063 9.23086 177.098 9.27586L177.133 9.30086C178.101 10.1459 178.607 11.4509 178.753 12.0159C178.908 12.5859 178.959 12.8009 178.959 12.8009H179.52C179.625 12.8359 179.736 12.8259 179.841 12.8159H180.368V6.15586H179.129V6.18086C178.964 6.23086 178.577 6.86086 178.577 6.86086C178.577 6.86086 178.342 7.25586 178.126 7.25586C177.925 7.25586 177.574 7.17086 177.078 7.01586C176.897 6.95586 176.722 6.90586 176.541 6.86086L176.431 6.83586C174.826 6.29086 173.277 6.00586 171.813 6.00586C167.66 6.00586 163.729 7.24586 161.292 9.34586C158.699 11.5609 157.385 14.3859 157.385 17.7209C157.385 21.0559 158.85 24.4659 161.197 26.4359C163.574 28.4309 167.385 29.6109 171.391 29.6109C174.32 29.6109 177.615 28.7059 180.648 27.0559L180.729 27.0109V24.8609C180.729 24.3109 180.729 23.5059 180.739 22.7309V22.4709C180.739 22.0759 180.759 21.6959 180.759 21.3759C180.794 21.0159 180.864 20.7459 180.984 20.6009C181.09 20.4609 181.391 20.3009 182.258 20.2709C182.509 20.2709 182.72 20.2559 182.9 20.2459V18.9109H172.379V18.8959H172.374Z" fill="#270089"/>
<path d="M267.962 24.2113C267.962 24.2506 267.942 24.5255 267.903 25.036H259.911C260.055 25.6906 260.395 26.2077 260.932 26.5873C261.469 26.967 262.136 27.1568 262.935 27.1568C263.485 27.1568 263.969 27.0782 264.388 26.9211C264.82 26.751 265.219 26.4891 265.586 26.1357L267.216 27.903C266.221 29.0419 264.768 29.6113 262.856 29.6113C261.665 29.6113 260.611 29.3822 259.695 28.924C258.778 28.4528 258.072 27.8048 257.574 26.98C257.077 26.1553 256.828 25.2193 256.828 24.172C256.828 23.1379 257.07 22.2084 257.554 21.3837C258.052 20.5459 258.726 19.8979 259.577 19.4397C260.441 18.9684 261.403 18.7328 262.464 18.7328C263.498 18.7328 264.434 18.9553 265.272 19.4004C266.109 19.8455 266.764 20.487 267.235 21.3248C267.72 22.1495 267.962 23.1117 267.962 24.2113ZM262.483 21.0499C261.789 21.0499 261.207 21.2462 260.736 21.639C260.264 22.0317 259.976 22.5684 259.872 23.2491H265.075C264.971 22.5815 264.682 22.0513 264.211 21.6586C263.74 21.2528 263.164 21.0499 262.483 21.0499Z" fill="#270089"/>
<path d="M250.3 18.7328C251.282 18.7328 252.172 18.9619 252.971 19.42C253.782 19.8651 254.417 20.5 254.876 21.3248C255.334 22.1364 255.563 23.0855 255.563 24.172C255.563 25.2586 255.334 26.2142 254.876 27.039C254.417 27.8506 253.782 28.4855 252.971 28.9437C252.172 29.3888 251.282 29.6113 250.3 29.6113C248.847 29.6113 247.741 29.1531 246.982 28.2368V29.4542H244.056V14.884H247.119V20.0091C247.892 19.1582 248.952 18.7328 250.3 18.7328ZM249.77 27.0979C250.556 27.0979 251.197 26.8361 251.694 26.3124C252.205 25.7757 252.46 25.0622 252.46 24.172C252.46 23.2819 252.205 22.575 251.694 22.0513C251.197 21.5146 250.556 21.2462 249.77 21.2462C248.985 21.2462 248.337 21.5146 247.826 22.0513C247.329 22.575 247.08 23.2819 247.08 24.172C247.08 25.0622 247.329 25.7757 247.826 26.3124C248.337 26.8361 248.985 27.0979 249.77 27.0979Z" fill="#270089"/>
<path d="M241.451 18.8903V29.4546H238.545V28.1979C238.139 28.6561 237.655 29.0095 237.092 29.2583C236.529 29.4939 235.92 29.6117 235.265 29.6117C233.878 29.6117 232.778 29.2124 231.967 28.4139C231.155 27.6154 230.749 26.4306 230.749 24.8597V18.8903H233.812V24.4081C233.812 26.1099 234.526 26.9608 235.953 26.9608C236.686 26.9608 237.275 26.7252 237.72 26.2539C238.165 25.7695 238.388 25.0561 238.388 24.1135V18.8903H241.451Z" fill="#270089"/>
<path d="M223.236 29.6899C221.836 29.6899 220.566 29.3888 219.427 28.7866C218.301 28.1713 217.411 27.327 216.756 26.2535C216.115 25.167 215.794 23.943 215.794 22.5815C215.794 21.22 216.115 20.0026 216.756 18.9291C217.411 17.8426 218.301 16.9982 219.427 16.396C220.566 15.7808 221.842 15.4731 223.256 15.4731C224.447 15.4731 225.521 15.6826 226.476 16.1015C227.445 16.5204 228.257 17.1226 228.911 17.908L226.869 19.7931C225.94 18.7197 224.788 18.183 223.413 18.183C222.562 18.183 221.803 18.3728 221.135 18.7524C220.468 19.119 219.944 19.636 219.564 20.3037C219.198 20.9713 219.015 21.7306 219.015 22.5815C219.015 23.4324 219.198 24.1917 219.564 24.8593C219.944 25.527 220.468 26.0506 221.135 26.4302C221.803 26.7968 222.562 26.98 223.413 26.98C224.788 26.98 225.94 26.4368 226.869 25.3502L228.911 27.2353C228.257 28.0339 227.445 28.6426 226.476 29.0615C225.508 29.4804 224.428 29.6899 223.236 29.6899Z" fill="#270089"/>
<path d="M208.398 22.6993H213.955V25.1539H208.398V22.6993Z" fill="#270089"/>
<path d="M201.299 29.6899C199.898 29.6899 198.628 29.3888 197.489 28.7866C196.364 28.1713 195.473 27.327 194.819 26.2535C194.177 25.167 193.857 23.943 193.857 22.5815C193.857 21.22 194.177 20.0026 194.819 18.9291C195.473 17.8426 196.364 16.9982 197.489 16.396C198.628 15.7808 199.905 15.4731 201.319 15.4731C202.51 15.4731 203.583 15.6826 204.539 16.1015C205.508 16.5204 206.319 17.1226 206.974 17.908L204.932 19.7931C204.002 18.7197 202.85 18.183 201.476 18.183C200.625 18.183 199.865 18.3728 199.198 18.7524C198.53 19.119 198.007 19.636 197.627 20.3037C197.26 20.9713 197.077 21.7306 197.077 22.5815C197.077 23.4324 197.26 24.1917 197.627 24.8593C198.007 25.527 198.53 26.0506 199.198 26.4302C199.865 26.7968 200.625 26.98 201.476 26.98C202.85 26.98 204.002 26.4368 204.932 25.3502L206.974 27.2353C206.319 28.0339 205.508 28.6426 204.539 29.0615C203.57 29.4804 202.49 29.6899 201.299 29.6899Z" fill="#270089"/>
</svg>
