<svg width="24" height="286" viewBox="0 0 24 286" fill="none" xmlns="http://www.w3.org/2000/svg">
<path d="M0 3.20002C0 2.0799 0 1.51984 0.217987 1.09202C0.409734 0.715695 0.715695 0.409734 1.09202 0.217987C1.51984 0 2.0799 0 3.2 0H11.2C15.6804 0 17.9206 0 19.6319 0.871948C21.1372 1.63893 22.3611 2.86278 23.1281 4.36808C24 6.07937 24 8.31958 24 12.8V273.2C24 277.68 24 279.921 23.1281 281.632C22.3611 283.137 21.1372 284.361 19.6319 285.128C17.9206 286 15.6804 286 11.2 286H3.2C2.0799 286 1.51984 286 1.09202 285.782C0.715695 285.59 0.409734 285.284 0.217987 284.908C0 284.48 0 283.92 0 282.8V3.20002Z" fill="#FCFCFC"/>
<path d="M3.2002 0.5H11.2002C13.4486 0.5 15.1052 0.500481 16.4141 0.607422C17.7169 0.713899 18.6319 0.923349 19.4053 1.31738C20.8163 2.0364 21.9636 3.18371 22.6826 4.59473C23.0767 5.36806 23.2861 6.28305 23.3926 7.58594C23.4995 8.89483 23.5 10.5514 23.5 12.7998V273.2C23.5 275.449 23.4995 277.105 23.3926 278.414C23.2861 279.717 23.0767 280.632 22.6826 281.405C21.9636 282.816 20.8163 283.964 19.4053 284.683C18.6319 285.077 17.7169 285.286 16.4141 285.393C15.1052 285.5 13.4486 285.5 11.2002 285.5H3.2002C2.63189 285.5 2.23518 285.5 1.92676 285.475C1.62471 285.45 1.45091 285.404 1.31934 285.337C1.0371 285.193 0.806899 284.963 0.663086 284.681C0.596135 284.549 0.550093 284.375 0.525391 284.073C0.500192 283.765 0.5 283.368 0.5 282.8V3.2002C0.5 2.63189 0.500192 2.23518 0.525391 1.92676C0.550093 1.62471 0.596134 1.45091 0.663086 1.31934C0.806896 1.03709 1.03709 0.806896 1.31934 0.663086C1.45091 0.596134 1.62471 0.550093 1.92676 0.525391C2.23518 0.500192 2.63189 0.5 3.2002 0.5Z" stroke="#1A1A1A" stroke-opacity="0.09"/>
<line x1="19.5" y1="6" x2="19.5" y2="280" stroke="#1A1A1A" stroke-opacity="0.09"/>
</svg>
